<svg xmlns="http://www.w3.org/2000/svg" xmlns:xlink="http://www.w3.org/1999/xlink" width="610" height="297" viewBox="0 0 610 297">
  <defs>
    <clipPath id="clip-path">
      <rect id="Rectángulo_422455" data-name="Rectángulo 422455" width="610" height="297" transform="translate(810 9567)" fill="#fff" stroke="#707070" stroke-width="1"/>
    </clipPath>
    <clipPath id="clip-path-2">
      <rect id="Rectángulo_422452" data-name="Rectángulo 422452" width="319.56" height="296.87" transform="translate(0 0)" fill="none"/>
    </clipPath>
    <filter id="Trazado_1051871" x="114.626" y="43.481" width="105.736" height="104.627" filterUnits="userSpaceOnUse">
      <feOffset dy="3" input="SourceAlpha"/>
      <feGaussianBlur stdDeviation="3" result="blur"/>
      <feFlood flood-opacity="0.161"/>
      <feComposite operator="in" in2="blur"/>
      <feComposite in="SourceGraphic"/>
    </filter>
    <clipPath id="clip-path-3">
      <rect id="Rectángulo_422453" data-name="Rectángulo 422453" width="97.366" height="134.166" fill="none"/>
    </clipPath>
    <clipPath id="clip-path-4">
      <rect id="Rectángulo_422454" data-name="Rectángulo 422454" width="134.83" height="141.207" fill="none"/>
    </clipPath>
  </defs>
  <g id="Enmascarar_grupo_1181315" data-name="Enmascarar grupo 1181315" transform="translate(-810 -9567)" clip-path="url(#clip-path)">
    <rect id="Rectángulo_422451" data-name="Rectángulo 422451" width="541" height="163.453" rx="10" transform="translate(845.801 9614.861)" fill="#aa52f9"/>
    <g id="Grupo_1226985" data-name="Grupo 1226985" transform="translate(-28.801 -11.286)">
      <g id="Grupo_1226978" data-name="Grupo 1226978" transform="translate(988.074 9578.469)">
        <g id="Grupo_1226977" data-name="Grupo 1226977" transform="translate(0 0)" clip-path="url(#clip-path-2)">
          <path id="Trazado_1051745" data-name="Trazado 1051745" d="M2697.715,844.523c-1.433,2.821-2.972,5.622-3.555,8.762a8.629,8.629,0,0,0,2.8,8.233c1.717,1.62,3.4,3.281,5.091,4.924.711.227.953.868,1.272,1.441a4.014,4.014,0,0,0,.375.7c2.1,2.434,4.4,4.766,3.895,8.523a6.315,6.315,0,0,0,1.678-2.952,3.09,3.09,0,0,1,3.061-2.076c3.234-.023,6.47,0,9.7-.24a42.921,42.921,0,0,1,21.277,16.256c3.477,4.9,4.913,10.829,6.313,16.626A60.309,60.309,0,0,1,2750.977,926a24.7,24.7,0,0,1-3.061,8.952,78.407,78.407,0,0,1-17.9,22.141,124.474,124.474,0,0,1-10.866,8.992c-1.181-.121-1.366-1.126-1.694-1.962-4.724-12.031-8.894-24.261-13.134-36.468-2.311-6.654-5.9-12.728-9.231-18.916a155.5,155.5,0,0,0-10-16.469,14.168,14.168,0,0,0-3.179-3.524c-2.412-2.362-4.488-5.05-7.2-7.124-6.524-4.982-13.293-9.472-21.386-11.549-2.028-.52-2.479-1.205-2.36-3.066.263-4.151-.443-5.265-4.257-6.707a2.421,2.421,0,0,1-1.022-.594c-.682-1.048-.333-2.166-.267-3.284a11.909,11.909,0,0,0-3.193-9.074c-4.127-4.669-9.607-6.192-15.531-6.9-3.416-.407-6.85-.1-10.25-.57a1.172,1.172,0,0,1-.368-.528,2.939,2.939,0,0,1,.33-2.1,37.585,37.585,0,0,0,3.188-11.32,3.9,3.9,0,0,1,.453-1.494c.895-.868,1.269.072,1.694.547a14.434,14.434,0,0,0,3.086,3.01c.906.358,1.7-.11,2.517-.363,2.789-.688,3.695-2.566,4.04-5.322,1.2-9.539,3.411-18.909,5.051-28.377a9.546,9.546,0,0,0,.052-3.931c.916-1.989,2.362-2.181,3.645-.479a8.886,8.886,0,0,1,1.042,2.331c-.094,3.39-1.3,6.567-1.951,9.852-1.429,7.219-2.38,14.523-4.06,21.864.928,0,1.378-.65,1.985-.928.872-.313,1.485-1.063,2.342-1.4,1.168-.621,1.473-1.835,1.871-2.916a47.246,47.246,0,0,0,2.962-13.251c.109-1.674.983-3.334.212-5.046-.177-1.548-1.389-2.878-.961-4.555a2.047,2.047,0,0,1,.734-.924,27,27,0,0,1,14.308-4.842c1.3-.065,2.187.817,2.993,1.746,1.02,1.176,2.089,2.279,3.885,1.843a.68.68,0,0,1,.577.087c3.093,2.746,6.2.753,9.138-.2a7.193,7.193,0,0,1,5.916.242c10.661,5.483,17.735,13.882,21,25.488,2.184,7.762.623,14.97-2.829,21.97a35.287,35.287,0,0,0-1.582,3.63" transform="translate(-2438.1 -734.759)" fill="#64b1f1"/>
          <path id="Trazado_1051746" data-name="Trazado 1051746" d="M822.462,3580.635a303.449,303.449,0,0,1-31.836-3.3,337.481,337.481,0,0,1-43.668-9.565c-1.91-2.044-1.122-4.638-1.323-6.994a21.144,21.144,0,0,1,.2-4.719,40.755,40.755,0,0,1,1.447-8.175c2.226-6.879,5.317-13.236,10.7-18.288,4.078-3.825,8.525-5.928,14.375-4.852a121.669,121.669,0,0,1,16.3,4.258c.637.3,1.333.466,1.954.806a75.456,75.456,0,0,1,8.174,3.241c1.294.611,2.518,1.358,3.8,1.986,2.928,1.539,5.742,3.28,8.64,4.873A152.093,152.093,0,0,1,828.8,3552.67a5.4,5.4,0,0,0,1.168.729c2.777,2.058,5.529,4.15,8.142,6.418,1.977,1.441,3.931,2.911,5.876,4.393.623.476,1.336.884,1.6,1.708.1.956-.6,1.407-1.216,1.89-5.735,4.471-11.818,8.443-17.869,12.459-1.273.845-2.665.489-4.031.368" transform="translate(-694.875 -3284.785)" fill="#201f50"/>
          <path id="Trazado_1051747" data-name="Trazado 1051747" d="M2121.928,3674.5a310.574,310.574,0,0,1-43.44,7.356,442.766,442.766,0,0,1-52.987,2.522c-4.636-.072-9.269-.294-13.9-.446-.417-.709.178-.975.605-1.207,9.01-4.857,16.509-11.719,24.25-18.258,7.86-6.637,15.9-13.011,25.13-17.712,6.318-3.218,12.678-6.278,18.731-6.9a59.48,59.48,0,0,0-16.485,5.458c-2.352,1.159-5.023,1.651-7.412,2.822a1.261,1.261,0,0,1-1.486-.208c-.025-1.353,1.12-1.681,1.993-2.173,5.644-3.178,11.369-6.186,17.673-7.893a4.67,4.67,0,0,0,.542-.247c7.155-1.981,14.371-3.454,21.861-2.676a23.731,23.731,0,0,1,3.21.427c.59.167,1.2.252,1.789.442,1.092.44,2.256.674,3.339,1.144,1.3.486,2.489,1.212,3.766,1.753,7.778,4.6,12.023,11.543,13.475,20.339.368,2.229.472,4.48.657,6.728-.128,1.7-.158,3.4-.118,5.107a4.75,4.75,0,0,1-1.191,3.621" transform="translate(-1874.67 -3387.551)" fill="#201f50"/>
          <path id="Trazado_1051748" data-name="Trazado 1051748" d="M438.224,2299.44c-5.587-1.6-11.109-3.376-16.9-4.291a13.887,13.887,0,0,0-11.747,3.347,36.391,36.391,0,0,0-10.352,14.571c-.61,1.505-1.127,3.048-1.686,4.573-2.815-1.451-5.689-.256-8.531-.156-5.415.19-10.839.7-16.135-.988-1.63-2.116-2.209-4.645-2.7-7.175-1.676-8.711.2-17.006,3.039-25.186a26.522,26.522,0,0,0,1.645-5.084,2.831,2.831,0,0,1,.4-2.457c1.446-3.2,2.843-6.416,4.256-9.628.684-2.411,2.332-4.3,3.583-6.385,6.82-11.366,13.092-23.053,20.064-34.328,4.252-6.876,8.526-13.744,13.687-20,.745-.9,1.383-2.229,3-1.67a28.036,28.036,0,0,0,3.907,4.484,6.6,6.6,0,0,1,1.711,2.418c2.63,7.391,4.91,14.859,4.8,22.827a14.1,14.1,0,0,1-.081,1.788c-.312,2.2-1.328,2.913-3.43,2.262-2.287-.709-4.644-1.091-6.957-1.671a9.559,9.559,0,0,0-4.525.072c-2.023.458-2.671,1.457-2.036,3.476,1.036,3.289,2.452,6.442,3.558,9.709a54.321,54.321,0,0,1,1.686,7.561,2.126,2.126,0,0,1-.467,2.044c-.989.521-1.653-.17-2.282-.705a65.757,65.757,0,0,1-8.9-9.8,41.214,41.214,0,0,1,2.825,4.341c2.107,4.187,5.237,7.6,8.377,10.994,1.709,1.847,3.577,3.545,5.31,5.372.633.668,1.435,1.413,1.015,2.413-.406.967-1.479,1.01-2.4,1.1-3.463.335-6.32-1.217-9.019-3.067a90.875,90.875,0,0,1-10.45-9.053c.562.689,1.272,1.292,1.891,1.979,1.168,1.563,2.916,2.628,3.807,4.43a24.287,24.287,0,0,0,1.305,2.451c1.263,2.043.707,3.555-1.563,4.3-2.52.829-5.136,1.352-7.633,2.254-5.5,1.988-10.991,4-15.221,8.322a14.326,14.326,0,0,0-2.13,2.619c-.424.708-1.4,1.489-.857,2.237.512.706,1.633.165,2.426-.022,2.129-.5,4.263-1.01,6.338-1.712a94.855,94.855,0,0,1,28.967-4.54c1.033-.018,2.153-.2,2.993.7-.125,1.081-1.034,1.043-1.771,1.209-3.88.877-7.842,1.269-11.754,1.961a101.972,101.972,0,0,0-21.909,6.343,3.2,3.2,0,0,0-1.969,1.368,3.719,3.719,0,0,0,2.567.716,40.725,40.725,0,0,0,10.469-.844c10.709-2.174,21.437-4.263,32.094-6.688,2.07-.471,4.062-1.217,6.118-1.732,2.112-.529,2.771.021,2.092,2a5.01,5.01,0,0,0,.8,5.021,17.163,17.163,0,0,1-.2,4.609c-.041.617-.268,1.3-1.136,1.312" transform="translate(-344.418 -2054.544)" fill="#fec53b"/>
          <path id="Trazado_1051749" data-name="Trazado 1051749" d="M3317.067,2381.275a64.805,64.805,0,0,0-1.17-8.837,26.6,26.6,0,0,0-11.194-16.5c-.488-.328-.937-.714-1.4-1.073a1.907,1.907,0,0,1-.693-1.558c.354-2.247,0-4.552.571-6.774.735-1.192,1.563-.647,2.331-.068a27.806,27.806,0,0,1,2.56,2.771c7.163,7.093,14.211,14.309,21.954,20.786a18.86,18.86,0,0,0,6.553,3.687,3.968,3.968,0,0,0,3.914-.722c6.1-4.892,8.192-15.034,4.53-21.936a16.447,16.447,0,0,0-2.569-3.274c-.549-.6-1.374-1.155-.908-2.2,1.187-.651,2.026.129,2.852.754a24.6,24.6,0,0,1,3.783,3.9c1.058-8.257-4.449-14.914-12.955-15.652-3.809-.331-7.691-.519-11.176,1.659-1.811.309-3.537-.317-5.3-.492a100.029,100.029,0,0,0-13.435-.8,3.551,3.551,0,0,1-1.547-.282c-1.086-.608-.65-1.44-.062-1.946a80.572,80.572,0,0,0,9.154-9.643.813.813,0,0,1,.924-.167c1.186.9.765,2,.328,3.051a30.428,30.428,0,0,1-3.844,6.2,10.48,10.48,0,0,0,5.553-2.648,22.514,22.514,0,0,0,6.781-9.425,43.805,43.805,0,0,0,2.424-16.385c-.218-12.421-5.891-22.975-11.12-33.692-1.262-2.587-1.443-2.443-3.178-.146a54.74,54.74,0,0,0-8.206,14.245c-1.859,5.124-3.021,10.371-2.42,15.791a18.794,18.794,0,0,0,9.673,14.933,7.8,7.8,0,0,0,3.266.745c1.008.1,1.955.5,1.889,1.639-.1,1.688.179,3.463-.779,5.027a6.578,6.578,0,0,0-1.983,1.561,61.183,61.183,0,0,1-10.893,10.1c-.228-.028-.036.454-.039.188,0-.081.051-.091.135-.113.445-.116.783-.085.773.5-.9,1.117-1.945.467-2.957.249a4.314,4.314,0,0,1-2.784-1.706,17.387,17.387,0,0,1-1.229-5c-.583-3.668-1.583-7.256-2.041-10.946-.011-.771-.008-1.543-.009-2.313a90.853,90.853,0,0,1,8.533-39.259c1.476-3.177,3.335-6.17,5.085-9.21a12.444,12.444,0,0,0,1.61-3.395c1.08-2.491,2.283-4.888,4.93-6.122,1.593.63,2.348,2.087,3.268,3.362,5.879,8.144,10.386,17.088,15.1,25.909,4.913,9.184,7.337,19.309,11,28.965,2.328,6.132,4.555,12.3,6.847,18.45a6.927,6.927,0,0,0,.721,1.171c.747,3.177,2.311,6.054,3.336,9.131,2.563,7.693,3.079,15.422.67,23.25a10.562,10.562,0,0,0-.237,1.356c.4,1.955-.637,3.576-1.341,5.225-1.193,2.791-2.654,5.437-5.621,6.8a83.347,83.347,0,0,1-11.161,4.239c-4.041.056-7.879-1.327-11.867-1.674-1.5-.13-2.984-.487-4.491-.593a3.561,3.561,0,0,1-2.443-1.083" transform="translate(-3069.176 -2103.303)" fill="#f3a62f"/>
          <path id="Trazado_1051750" data-name="Trazado 1051750" d="M35.674,1350.618l-5.228,11.958c-2.3-.974-4.039-2.765-5.883-4.328A68.456,68.456,0,0,1,5.422,1332.54a72.144,72.144,0,0,1-5.22-23.1c-1.32-17.561,3.836-33.043,14.783-46.655,5.43-6.752,12.071-12.189,19.23-17.07a137.077,137.077,0,0,1,37.017-18.035A168.308,168.308,0,0,1,99.68,1221.5a21.76,21.76,0,0,1,3.94-.375,3.5,3.5,0,0,1,1.973,4.014,2.647,2.647,0,0,1-2,.7,168.438,168.438,0,0,0-56.705,16.314,77.49,77.49,0,0,0-24.47,18.8,84.624,84.624,0,0,0-13.534,19.812c-4.168,8.8-6.227,18.009-5.2,27.788a5.35,5.35,0,0,1,.05,1.39c-.97,6.042,1.945,10.8,5.178,15.4,6.416,9.123,14.645,16.385,23.717,22.753a12,12,0,0,1,3.04,2.531" transform="translate(0 -1138.07)" fill="#83c8f4"/>
          <path id="Trazado_1051751" data-name="Trazado 1051751" d="M1483.235,62.749c-.763-2.312-.473-4.722-.555-7.08-.217-6.245-.025-12.483,1.8-18.531,1.813-6,4.956-11.121,10.381-14.816-2.026-1.781-4.007-3.506-3.854-6.428a5.677,5.677,0,0,1,1.547-3.644c1.032,4.49,2.721,5.473,7.2,4.384,4.208-1.023,8.008-3.157,12.13-4.416,4.609-1.408,9.213-1.982,13.81-.01a2.67,2.67,0,0,0,2.1-.088,22.009,22.009,0,0,1,5.106-1.37c-1.45-1.813-2.854-3.449-4.122-5.183-1.42-1.941-1.009-2.729,1.425-3a11.939,11.939,0,0,1,8.723,2.651,32.2,32.2,0,0,1,4.694,4.355c-1.059-3.043-2.206-6.05-.714-9.567,3.429,6.135,8.694,8.849,15.057,9.92,3.393.571,6.562,1.648,8.414,5.163.248-1.9-.517-3.426-.779-5.051,2.305,1.085,3.3,2.854,3.439,6.055,1.431-1.684,1.652-2.621,1.8-7.808,2.227,1.609,2.607,3.778,2.378,6.154-.186,1.935-1.122,3.244-3.239,3.37.172.763.806.931,1.286,1.227,10.076,6.2,14.846,15.524,15.933,27.018.174,1.848.306,3.7.457,5.55,1.352,2.732.879,5.539.343,8.347-.386.662-.85,1.156-1.711.786-1.677-.789-1.753-2.326-1.8-3.873-.731-3.527-.293-7.131-.737-10.694-.821-6.589-2.746-12.665-6.959-17.922-1.852-2.311-4.343-3.85-6.41-5.712a22.484,22.484,0,0,1,3.3,4.8,29.324,29.324,0,0,0,4.079,6.1c1.531,1.677,1.25,2.472-.923,3.183-1.3,0-1.778-.958-2.294-1.906a36.286,36.286,0,0,0-9.937-12c-7.291-5.484-15.637-7.976-24.592-8.61a56.288,56.288,0,0,0-23.226,3.5,35.9,35.9,0,0,0-21.231,19.448c-.58,1.255-.986,2.68-2.736,2.789-2.122-.411-2.9-1.218-3.1-3.219a8.394,8.394,0,0,1,6.888-9.051c-1.766-.833-1.97-1.371-.987-2.591-5.32,5.612-8.729,12.145-9.188,19.951-.276,4.684-.969,9.381-.164,14.085a7.181,7.181,0,0,1,.272,2.136,2.777,2.777,0,0,1-1.972,2.3,1.328,1.328,0,0,1-1.332-.7" transform="translate(-1381.786 -0.004)" fill="#1f1f51"/>
          <path id="Trazado_1051752" data-name="Trazado 1051752" d="M3901.282,1701.107c-3.129.758-6.316.452-9.479.455-1.4,0-2.235.373-2.592,1.791a26.053,26.053,0,0,1-1.075,2.98c-.217.562-.474,1.175-1.23,1.053-.671-.108-.67-.722-.726-1.246-.049-.46-.1-.921-.121-1.382-.1-2.211-.453-4.185-2.6-5.576-1.258-.816-1.748-2.441-2.067-3.962,0-3.442,0-6.884.008-10.326.013-4.145,2.694-7.056,6.833-7.19,3.77-.122,7.548-.09,11.321-.021,2.871.052,5.813,2.309,5.993,5.132a60.093,60.093,0,0,1-.233,14.043,6.774,6.774,0,0,1-.4,1.116,3.552,3.552,0,0,1-3.639,3.131" transform="translate(-3617.447 -1563.539)" fill="#f4fefe"/>
          <path id="Trazado_1051753" data-name="Trazado 1051753" d="M4173.825,1980.053c1.511-.7,2.479-2.025,3.64-3.131,4.592,1.879,9.283,3.492,13.705,5.8,9.875,5.161,16.648,12.81,18.032,24.051a49.007,49.007,0,0,1-4.264,26.342,58.738,58.738,0,0,1-4.143,8.353c-.29.442-.481.95-.99,1.207a45.1,45.1,0,0,0,2.749-16.537,67.95,67.95,0,0,0-6.759-27.944c-2.486-5.18-6.938-8.795-11.416-12.244a46.121,46.121,0,0,0-10.555-5.9" transform="translate(-3889.99 -1842.485)" fill="#82c8f4"/>
          <path id="Trazado_1051754" data-name="Trazado 1051754" d="M3023.934,756c.407-2.9.012-5.812.176-8.714a119.512,119.512,0,0,1,15.443-.826,57.243,57.243,0,0,1,29.172,7.872c9.777,5.85,15.141,14.595,16.343,26.011.991,9.413-1.853,17.587-7.2,25.11-.082-2.289,1.017-4.242,1.925-6.2,5.221-11.252,2.648-21.54-3.819-31.319a38.209,38.209,0,0,0-14.5-12.682c-1.837-.966-3.517-1.589-5.764-.424a16.839,16.839,0,0,1-9.027,1.517c-1.133-.084-.333-1.054-.568-1.672-1.866,1.709-3.446.1-4.067-.946-1.925-3.249-4.635-2.619-7.3-1.913-3.771,1-7.508,2.2-10.673,4.643a.311.311,0,0,1-.19-.276c0-.122.018-.182.05-.182" transform="translate(-2818.249 -695.694)" fill="#82c7f4"/>
          <path id="Trazado_1051755" data-name="Trazado 1051755" d="M1928.807,3707.9c1.62.022,2.723-1.281,4.187-1.639,4.1-1,7.736-3.183,11.7-4.571,3.933-1.376,7.981-1.736,11.987-2.5a.828.828,0,0,1,.961.36c-.823.732-1.892.387-2.794.567-7.894,1.581-15.026,5.04-21.981,8.9-9.481,5.259-17.614,12.326-25.827,19.307-6.137,5.217-12.292,10.451-19.367,14.445-.714.4-1.736.307-2.161,1.213a90.325,90.325,0,0,1-9.341-.529c2.349.453,3.893-1.135,5.606-2.247,5.646-3.668,11.172-7.51,16.537-11.58.323-.245.644-.465.681-.911.055-.976.814-1.424,1.462-1.959,1.6-1.323,3.413-2.366,4.975-3.743a249.017,249.017,0,0,1,20.512-14.271c.851-.512,1.66-1.419,2.862-.842" transform="translate(-1748.585 -3447.607)" fill="#2a3272"/>
          <path id="Trazado_1051756" data-name="Trazado 1051756" d="M309.127,3907.877c-.125,4-.323,8,.493,11.963-9.641-2.873-18.98-6.6-28.419-10.043a12.664,12.664,0,0,1-4.153-2.282c-1.053-.931-.943-1.57.3-2.207,2.873-1.478,6.014-1.958,9.128-2.543.575-.108,1.207.025,1.663-.48a.981.981,0,0,1,.775.033c4.169,2.711,9.1,2.527,13.7,3.612,1.476.348,2.984.6,4.487.842a2.89,2.89,0,0,1,2.03,1.106" transform="translate(-257.538 -3636.858)" fill="#62b1f2"/>
          <path id="Trazado_1051757" data-name="Trazado 1051757" d="M441.61,3853.414c-5.15-.914-10.29-1.891-15.455-2.714a10.723,10.723,0,0,1-5.537-2.88c-.57-1.246-1.756-2.112-2.139-3.475.989-.9,2.014-.165,3-.032a71.448,71.448,0,0,0,17.877-.286c1.4-.163,3.265-.922,3.784,1.46l-1.534,7.925" transform="translate(-390.021 -3582.395)" fill="#f4a52c"/>
          <path id="Trazado_1051758" data-name="Trazado 1051758" d="M3636.586,4087.619a142.975,142.975,0,0,1,15.6,2.38c1.086.238,2.135.643,3.2.971-5.848,2.384-11.975,3.816-18.088,5.3l-1.348.327c.592-2.964.415-5.984.635-8.975" transform="translate(-3388.693 -3809.647)" fill="#61b1f3"/>
          <path id="Trazado_1051759" data-name="Trazado 1051759" d="M1475.748,922.683l1.174.412c1.091.313,1.521,1.252,1.916,2.152,3.395,7.742,5.762,15.746,6.065,24.263a3,3,0,0,1-.214,1.748c-1.822.762-2.337-.668-3.031-1.8-2.084-6.914-4.131-13.842-6.46-20.682a7.331,7.331,0,0,1-.6-3.1c-.085-1.179.784-1.99,1.153-2.994" transform="translate(-1374.3 -859.938)" fill="#385fb2"/>
          <path id="Trazado_1051760" data-name="Trazado 1051760" d="M4085.879,3909.807c3.716-3.2,5.351-7.6,6.961-12.021a27.6,27.6,0,0,1,7.553,2.337c2.4,1.227,2.432,2.5.031,3.954a50.715,50.715,0,0,1-9.607,4.262,24.274,24.274,0,0,1-4.938,1.467" transform="translate(-3808.025 -3632.724)" fill="#62b1f3"/>
          <path id="Trazado_1051761" data-name="Trazado 1051761" d="M1469.02,966.712c1.632,3.051,2.461,6.4,3.522,9.657,1.535,4.709,2.877,9.481,4.3,14.227-1.951.141-2.651-.533-2.706-2.607a18.952,18.952,0,0,0-1.793-3.964,87.084,87.084,0,0,1-3.594-14.427,3.743,3.743,0,0,1,.269-2.885" transform="translate(-1368.725 -900.972)" fill="#f4d23f"/>
          <path id="Trazado_1051762" data-name="Trazado 1051762" d="M1305.072,1580.2c-1.526,1.982-3.289,3.789-4.439,6.046a2.939,2.939,0,0,1-1.5,2.259c-2.216.223-2.814,2.26-3.83,3.664a32.527,32.527,0,0,0-5.4,12.039,2.676,2.676,0,0,1-.962,1.9c-3.295,1.6-3.957,1.451-6.067-1.567-2.427-3.47-4.544-7.177-7.634-9.777a39.359,39.359,0,0,1,3.8,17.38,11.265,11.265,0,0,1-.475,3.328,38.054,38.054,0,0,1-13.209,24.313,5.817,5.817,0,0,1-2.6,1.4c-4.014-1.258-7.88-2.713-9.417-7.216a104.262,104.262,0,0,1,.049-12.521,6.446,6.446,0,0,0-.092-1.781,7.483,7.483,0,0,1-.046-1.735c.383-2.52.128-4.857-1.918-6.685a5.908,5.908,0,0,0-4.211-1.437c-10.726,0-21.447.411-32.173.526-3.727.039-7.549-.188-11.273.609a3.25,3.25,0,0,0-1.458.548,14.9,14.9,0,0,0-3.2,3.877,6.413,6.413,0,0,0-.574,3.279c0,4.891.021,9.783-.007,14.675-.014,2.465-.721,2.987-3.182,2.658-3.35-.447-6.72-.889-9.771,1.182a6.838,6.838,0,0,0-2.585,2.275c-.5.712-1.009,1.361-2.018,1.195a35.471,35.471,0,0,1-11.323-10.15c-5.4-7.811-8.35-16.8-11.23-24.506.607,2.726,2.513,6.276,3.366,10.175a74.1,74.1,0,0,1,1.475,11.42,94.075,94.075,0,0,0,2.151,17.139,26.837,26.837,0,0,0,3.84,8.686c.435.641,1.167,1.309.759,2.13-.443.895-1.483.86-2.311.777-3.087-.31-6.217.335-9.283-.433a4.34,4.34,0,0,1-.928-1.006c-1.05-2.432-.831-5.049-1.109-7.6-.372-3.411-.958-6.793-1.387-10.2a4.511,4.511,0,0,0-.2-2.625c.025-2.116-.946-4.1-.834-6.229a7.728,7.728,0,0,0,.339-3.727c-.544-6.465-.774-12.971-2.133-19.342a98.048,98.048,0,0,0-10.836-28.933c-.241-.416-.432-.83-1.005-.788-.6-.308-1.341-.328-1.864-.83.081-1.175,1.059-1.626,1.831-2.21,5.687-4.3,11.645-8.135,18.42-10.527,1.434-.506,1.68-1.251,1.184-2.713-1.239-3.651-.3-6.744,2.493-8.924.9-.705,1.865-1.306,3.1-.853.163.49.152.971.738,1.352a33.243,33.243,0,0,1,5.682,4.587,15.51,15.51,0,0,1-3.8-4.276,5.826,5.826,0,0,0-2.515-2.412c-1.16-2.112-.789-4.25-.008-6.34,1.373-3.68,4.152-6.083,7.478-7.939,4.536-2.531,9.535-3.174,14.6-3.372,2.365-.092,4.776-.378,7.12.333a4.948,4.948,0,0,1,2.019,5.219,1.615,1.615,0,0,1-.376.567c-1.131.763-2.425.539-3.668.561-3.835.068-7.708-.329-11.442.922-2.149.72-4.327,1.435-5.2,3.873-.619,1.807.033,3.446.679,5.081.407,1.031,1.167,1.881,1.534,2.935a5.741,5.741,0,0,0,2.412,4.164c6.865,5.546,13.484,11.4,20.825,16.345,1.086.731,2.3,1.5,1.83,3.177a8.26,8.26,0,0,1-.986,1.441,3.081,3.081,0,0,0,.346,3.945c.532.636,1.319,1.1,1.439,2.028a1.222,1.222,0,0,1-1.653,1.225c-2.248-.708-4.611-.366-6.871-.974a24.567,24.567,0,0,1-6.486-2.922,4.776,4.776,0,0,0-2.757-.987,53.658,53.658,0,0,1-12.426-7.381c3.5,2.679,6.313,5.5,9.457,7.948a46.736,46.736,0,0,0,21.359,9.044,4.358,4.358,0,0,1,2.078.584,7.784,7.784,0,0,1,1.183,5.5,15.52,15.52,0,0,1-4.75,10.425,3.1,3.1,0,0,0-1.158,1.745,16.056,16.056,0,0,0,6.616-12.571c.08-1.427-.334-2.935.613-4.245a3.3,3.3,0,0,1,2.65-.542,88.726,88.726,0,0,0,11.3.659c.842-.023,1.755-.161,2.389.643.712,1.512.349,3.126.4,4.7a17.267,17.267,0,0,0,3.9,10.816,6.713,6.713,0,0,0,.949,1.013.605.605,0,0,0,.66.081c.194-.742-.48-1.091-.848-1.551a17.34,17.34,0,0,1-3.665-14.158,2.909,2.909,0,0,1,.86-1.951c6.631.279,12.3-2.559,17.934-5.526a64.129,64.129,0,0,0,16.482-12.3,21.932,21.932,0,0,0,4-5.29,18.5,18.5,0,0,0-4.987,1.963c-3.655,2.024-7.145,4.306-10.6,6.638a7.087,7.087,0,0,1-2.629,1.357c-1.334,0-2.346.829-3.4,1.442a49.935,49.935,0,0,1-8.312,3.509,2.271,2.271,0,0,1-2.974-.764,2.782,2.782,0,0,1-.349-1.111c-.157-1.43-.781-2.4-2.378-2.175a2.357,2.357,0,0,0-2.186,2.736,6.685,6.685,0,0,1-.006,1.37,3.219,3.219,0,0,1-2.657,3.229,5.59,5.59,0,0,0-1.452.619c-4.8,2.907-9.684,2.316-14.62.4a7.653,7.653,0,0,1-2.345-1.427,2.39,2.39,0,0,1-.567-2.872,24.8,24.8,0,0,0,.908-3.4,2.383,2.383,0,0,1,2.164-1.649c2.264.505,3.9,2.115,5.757,3.331,2.2,1.442,2.464,1.507,4.532-.008,2.178-1.6,4.275-3.292,6.312-5.062a8.9,8.9,0,0,1,.88-.7,9.835,9.835,0,0,1,2.979-2.082c1.95-.648,3.323-2.156,4.836-3.4,4.034-3.31,8.7-5.753,12.666-9.093,2.636-2.217,5.711-4.114,7.334-7.383.575-.89,1.289-1.673,1.9-2.535,2.947-4.165,1.537-8.725-3.275-10.486-2.838-1.039-5.851-.865-8.794-1.143-1.244-.118-2.507.009-3.76-.044a2.776,2.776,0,0,1-2.343-.82c-.611-1.148-.168-2.351-.19-3.53a1.165,1.165,0,0,1,.607-.878c8.424-.56,16.671-.24,23.919,4.91a6.065,6.065,0,0,1,2.266,2.434c2.541,4.936,2.065,9.578-1.475,13.839a72.223,72.223,0,0,1-16.4,14.3c-2.194,1.428-4.378,2.869-6.589,4.27,5.892-3.679,11.586-7.652,17.233-11.692a81.7,81.7,0,0,0,7.917-6.623c.705-.653,1.317-1.56,2.513-1.282,4.178-.139,6.75,3.014,5.765,7.146-.28,1.175-.391,2,1.141,2.343,8.218,1.85,15.075,6.339,21.686,11.3a44.505,44.505,0,0,1,7.723,7.678" transform="translate(-1060.968 -1426.73)" fill="#fec53d"/>
          <path id="Trazado_1051763" data-name="Trazado 1051763" d="M1878.867,637.532a54.865,54.865,0,0,1-4.142,14.872c-3.995,6.539-9.555,11.1-17.028,13.024-10.118,2.607-20.279-2.139-25.826-10.289a7.049,7.049,0,0,0-2.4-2.933c-2.8-3.573-4.044-7.78-4.9-12.134-.125-.641-.231-1.288-.392-1.924-.163-1.359-.66-2.655-.773-4.025-.134-2.26-.856-4.414-1.2-6.637.3-2.7-.656-5.228-1.074-7.825-.816-5.055-1.505-10.1-.653-15.222a9.983,9.983,0,0,1,.285-1.362c.588-1.865,1.551-2.332,3.3-1.487a31.723,31.723,0,0,0,4,1.754,8.2,8.2,0,0,0,9.41-2.861,23.317,23.317,0,0,0,3.239-6.13c.937-2.368,1.6-2.771,4.106-2.189a13.111,13.111,0,0,0,12.358-3.17c.632-.563,1.294-1.4,2.214-1.049,1.069.411,1.11,1.558,1.186,2.55a6.812,6.812,0,0,1-1.026,4.18,9.887,9.887,0,0,1-4.46,3.825c-.736.337-2,.246-2.039,1.275-.044,1.148,1.014,1.788,1.952,2.311a8,8,0,0,0,6.185.422,16.421,16.421,0,0,0,10.031-7.006,10.837,10.837,0,0,1,1.788-2.378c.786-.694,1.421-.629,1.779.449a1.292,1.292,0,0,1,.1.384c.032,3.939,2.085,6.392,5.625,7.85a3.017,3.017,0,0,1,1.6,2.59c.606,3.645.066,7.267-.267,10.875-.121,1.311-.112,2.641-.333,3.947-.4,3.509-.941,7-1.028,10.541-.486,2.6-.108,5.385-1.623,7.771" transform="translate(-1696.319 -547.884)" fill="#febd84"/>
          <path id="Trazado_1051764" data-name="Trazado 1051764" d="M1652.865,339.373a40.4,40.4,0,0,1,.976-7.739c1.078-8.268,3.287-16.328,4.472-24.576-.646,4.373-1.506,8.7-2.453,13.02-.1.465.124,1.356-.92,1.032-.025-.008-.036-.1-.031-.158a1.02,1.02,0,0,1,.057-.19c.315-4.892,1-9.771.446-14.694-.1-.84-.134-1.563-1.11-1.851-4.428-1.3-6.16-4.484-6.131-8.877a5.452,5.452,0,0,0-.169-.816c-.912,1.381-1.638,2.6-2.479,3.73a17.122,17.122,0,0,1-12.53,7.227,6.887,6.887,0,0,1-6.938-3.353c-.675-1.065-.787-1.7.813-1.906a8.16,8.16,0,0,0,5.284-2.909,7.173,7.173,0,0,0,1.243-7.408c-.932.808-1.73,1.582-2.61,2.248a13.5,13.5,0,0,1-12.947,2.322c-1.277-.417-1.747-.193-2.115,1.056a20.784,20.784,0,0,1-3.267,6.771c-3.046,4.028-6.676,5.107-11.381,3.346a22.849,22.849,0,0,1-2.87-1.363c-2.377-1.293-2.468-1.278-2.935,1.519-.98,5.863-.1,11.632.922,17.395a23.168,23.168,0,0,1,.626,5.912c-1.316.091-1.369-1.065-1.666-1.83-2.124-5.467-3.634-11.13-5.239-16.762a16.4,16.4,0,0,1-.574-2.1c2.192,9.429,5.839,18.4,8.7,27.611a11.044,11.044,0,0,1,.689,3.936,5.643,5.643,0,0,1-2.519,4.194,1.663,1.663,0,0,1-2,.2,4.59,4.59,0,0,1-1.107-2.284c-3.512-11.087-6.712-22.265-9.755-33.489-.377-1.391-.632-2.857-1.912-3.8.635-3.162-.566-5.573-2.875-7.7-1.4-1.289-1.22-3.1.186-5.237a4.614,4.614,0,0,1,3.255-2.33,7.329,7.329,0,0,1,2.452,1.238c1.71.942,1.962.891,2.758-.987a29,29,0,0,1,9.536-12.164,41.628,41.628,0,0,1,20.712-9.036,48.317,48.317,0,0,1,25.053,2.517,39.4,39.4,0,0,1,10.625,6.533,53.629,53.629,0,0,1,7.337,9.059c.67.974,1.142,1.828,2.287.469a1.439,1.439,0,0,1,2.132-.189,4,4,0,0,1,.8,2.787c.042,1.253-.033,2.509.044,3.761.171,2.781,1.1,5.138,3.686,6.591.741.417,1.623.9,1.255,1.962s-1.378,1.1-2.322,1.115a4.341,4.341,0,0,1-2.271-.606c-1.244-.73-1.658-.1-1.794,1.046q-3.182,16.972-5.962,34.009c-.152.922-.047,1.855-.185,2.771-.175,1.158-.106,2.408-1.1,3.3-1.992-.859-3.058-2.614-4.181-4.315" transform="translate(-1470.317 -249.725)" fill="#201f51"/>
          <path id="Trazado_1051765" data-name="Trazado 1051765" d="M2775.51,793.154c1.258,0,2.17.915,3.3,1.247a1.781,1.781,0,0,1,.823,2.131q-2.553,13.445-4.987,26.912a53.556,53.556,0,0,0-.793,5.492,3.084,3.084,0,0,1-2.638,3.159,16.013,16.013,0,0,0-2.032.738c-1.014-1.128-.8-2.488-.6-3.777,1.708-11.363,3.7-22.676,6.115-33.913a4.1,4.1,0,0,1,.813-1.989" transform="translate(-2580.156 -739.217)" fill="#3659ac"/>
          <path id="Trazado_1051766" data-name="Trazado 1051766" d="M4196.667,2744.274c1.773-1.929.418-3.625.449-5.226.024-1.213-.868-2.856.17-3.538,1.146-.752,2.757-.1,4.1.553,4.62,2.261,4.771,3.013,1.21,6.575a13.429,13.429,0,0,1-5.275,3.664c-1.316.436-2.4,1.591-3.563,2.462a2.228,2.228,0,0,1-2.907.026c-1.852-1.264-3.238-2.9-3.033-5.184a8.264,8.264,0,0,1,4.449-6.855,1.488,1.488,0,0,1,.184-.073c2.621-.946,3.348-1.935,3.3,2.135a31.731,31.731,0,0,0,.926,5.459" transform="translate(-3903.007 -2549.173)" fill="#93cdf8"/>
          <path id="Trazado_1051767" data-name="Trazado 1051767" d="M1993.039,1539.378c1.631,1.637,3.163,3.388,4.909,4.892,9.282,8,22.446,7.635,31.6-.877,2.174-2.021,4.147-4.259,6.213-6.4a.344.344,0,0,0,0,.329q-.087.421-.176.843c-2.189,8.681-11.979,16.551-20.9,16.692-1.811.029-3.715.714-5.451-.415-5.828-1.456-10.023-5.163-13.522-9.825-.753-1-1.447-2.05-2.182-3.065a2.053,2.053,0,0,1-.495-2.177" transform="translate(-1857.357 -1432.475)" fill="#1a1749"/>
          <path id="Trazado_1051768" data-name="Trazado 1051768" d="M2754.5,787.463a4.412,4.412,0,0,1-.121,2.524c-2.25,10.815-4.28,21.671-5.867,32.605-.218,1.5-.23,3.031-.337,4.548-.721.425-1.423.963-2.3.348.717-10.681,3.2-21.09,4.9-31.618.4-2.487.852-4.966,1.3-7.445.089-.5-.013-1.1.6-1.378l1.828.415" transform="translate(-2559.15 -733.526)" fill="#f9d444"/>
          <path id="Trazado_1051769" data-name="Trazado 1051769" d="M2927.763,885.726c.047.152.093.305.14.458-.1,1.553,1.545,2.632,1.161,4.262-.416,3.226-1.641,6.251-2.351,9.407-.8,3.553-1.763,7.07-2.372,10.664a3.54,3.54,0,0,1-.84,1.972,5.588,5.588,0,0,1-1.919,1.225c-.966-.685-.818-1.732-.859-2.705-.225-5.4.938-10.63,1.893-15.885a44.7,44.7,0,0,1,1.819-7.479c.366-.994.685-2.27,2.267-1.955a.911.911,0,0,0,1.06.036" transform="translate(-2722.078 -825.415)" fill="#395cad"/>
          <path id="Trazado_1051770" data-name="Trazado 1051770" d="M2649.992,1662.619c-3.671,3.126-7.153,6.463-11.107,9.267-5.732,4.064-11.708,7.734-17.7,11.391-.2.124-.439.34-.789.008a11.877,11.877,0,0,1,3.281-2.383,115.69,115.69,0,0,0,19.038-15.209c4.187-4.217,6.172-8.829,4.207-14.7a5.432,5.432,0,0,1-.127-1.182,11.665,11.665,0,0,1,3.373,10.076,6.394,6.394,0,0,0-.178,2.733" transform="translate(-2442.203 -1537.617)" fill="#eea12e"/>
          <path id="Trazado_1051771" data-name="Trazado 1051771" d="M3168.581,1481.3c-3.378-.008-4.17-.5-4.706-2.695-.4-1.638,1.119-4.69,2.634-5.573.67-.391.956.221,1.441.274a5.483,5.483,0,0,1,4.056,2.859c1.674,2.653.965,4.28-2.06,4.948a12.357,12.357,0,0,1-1.365.187" transform="translate(-2948.66 -1372.736)" fill="#92cefa"/>
          <path id="Trazado_1051772" data-name="Trazado 1051772" d="M2890.436,835.815c-1.163.444-1.347,1.564-1.662,2.535a69.846,69.846,0,0,0-3.458,25.489l-3.534,2.477c1.021-5.267,2-10.1,2.888-14.958,1.138-6.242,2.292-12.48,3.717-18.664l.378-.568c-.216,1.579.641,2.673,1.671,3.688" transform="translate(-2685.812 -775.54)" fill="#222b70"/>
          <path id="Trazado_1051773" data-name="Trazado 1051773" d="M3809.571,2407.92a2.119,2.119,0,0,1-2.428-1.282,4.081,4.081,0,0,1,.591-4.28c1.858-2.309,6.46-1.8,7.886.791a1.4,1.4,0,0,1-.217,1.811,8.7,8.7,0,0,1-5.832,2.961" transform="translate(-3547.917 -2237.617)" fill="#95d0fb"/>
          <path id="Trazado_1051774" data-name="Trazado 1051774" d="M2961.345,978.34c-.265-2.693.718-5.191,1.28-7.742a114.477,114.477,0,0,1,3.2-12.215,5.078,5.078,0,0,1,1.081-2.086c.713,1.692.176,3.4.03,5.094a50.328,50.328,0,0,1-3.469,14.812c-.421,1.028-.932,1.9-2.123,2.136" transform="translate(-2759.922 -891.266)" fill="#f1d043"/>
          <path id="Trazado_1051775" data-name="Trazado 1051775" d="M3010.485,1322.231c1.769-1.77,1.549-3.958,1.462-6.109-.039-.951.655-1.2,1.336-1.48,2.5-1.046,5.017-2.061,7.494-3.162,1.173-.521,1.617-.224,1.484,1.015-.182,1.685-.382,3.369-.588,5.167-.761-.269-.79-.807-.914-1.276-.673-2.56-.672-2.562-3.053-1.7-.621.226-1.227.5-1.859.689-1.663.486-2.607,1.4-2.305,3.295.344,2.156-1.574,2.647-3.057,3.557" transform="translate(-2805.761 -1222.066)" fill="#cff2fa"/>
          <path id="Trazado_1051776" data-name="Trazado 1051776" d="M4201.919,2252.26c-1.5.069-2.092-.782-2.021-1.721a2.364,2.364,0,0,1,2.484-2.125c1.152-.008,2.479.858,2.373,1.971-.148,1.554-1.927,1.474-2.836,1.875" transform="translate(-3914.286 -2095.514)" fill="#98d0fa"/>
          <path id="Trazado_1051777" data-name="Trazado 1051777" d="M1704.67,3643.843c-6.12-4.738-12.194-9.539-18.767-13.654-2.185-1.683-2.142-2.214.469-3.255a43.174,43.174,0,0,0,7.634-3.813c3.458-2.249,7.5-1.888,11.349-2.354a2.515,2.515,0,0,1,2.032,1.1,7.383,7.383,0,0,0,3.763,3.308c3.682,1.029,7.264,2.407,11.067,2.983a41.538,41.538,0,0,0,19.514-1.959c1.4-.464,2.833-.561,4.218-.961.79-.117,1.707-.325,2.146.518.42.807-.189,1.537-.693,2.137a35.3,35.3,0,0,1-9.449,8.13c-6.3,3.594-12.817,6.683-20.21,7.3a8.558,8.558,0,0,1-2.375,0c-2.8-.547-5.656-.7-8.458-1.171-1.6-.271-2.3.049-2.237,1.692" transform="translate(-1569.793 -3374.532)" fill="#f3a630"/>
          <path id="Trazado_1051778" data-name="Trazado 1051778" d="M1966.517,3650.253a1.053,1.053,0,0,1-.051-.192c-.067-.858-1.7-1.216-1.007-2.074.625-.77,1.861-.353,2.834-.218,3.388.471,6.775,1.34,10.161,1.334a29.373,29.373,0,0,0,11.146-2.481c4.943-2.059,9.839-4.263,13.987-7.758a30.739,30.739,0,0,0,6.116-6.395c-.618-.583-1.226-.267-1.782-.316-1.8.2-3.594.359-5.379.7a3.857,3.857,0,0,1-3.187-.5c-.549-1.029.375-1.061.915-1.263a6.07,6.07,0,0,1,2.156-.181c3.559-.008,7.12-.075,10.677.019a9.567,9.567,0,0,0,7.681-2.9,2.768,2.768,0,0,1,2.093-.338,26.354,26.354,0,0,1,7.545,2.332,2.127,2.127,0,0,1,1.483,1.711,90.66,90.66,0,0,0-18.044,8.226c-.681.4-1.333.852-2,1.28a135.97,135.97,0,0,0-14.825,9.657c-2.75,1.963-5.349,4.139-8.262,5.871a34.331,34.331,0,0,1-14.177-.4q-3.269-2.5-6.539-5c-.505-.385-1.028-.745-1.543-1.117" transform="translate(-1831.641 -3380.942)" fill="#ed992f"/>
          <path id="Trazado_1051779" data-name="Trazado 1051779" d="M1383.118,2661.729H1394.5c-5.714-7.074-6.565-15.3-7.029-23.566a92.666,92.666,0,0,0-4.374-24.694,12.833,12.833,0,0,1-.626-3.062c1.684,4.789,4.4,9.1,6.11,13.869,3.1,8.636,8.124,15.854,15.83,21.033a3.952,3.952,0,0,1,1.415,1.356.88.88,0,0,1,.032,1.092c-.984,1.454-1.967,2.908-2.894,4.4a1.193,1.193,0,0,1-1.163.58c-1.182-.617-1.7-1.825-2.432-2.823a81.171,81.171,0,0,1-6.2-9.467,6.633,6.633,0,0,0-1.669-1.946,30.512,30.512,0,0,0,3.927,12.5c1.221,2.123,2.695,4.089,3.812,6.273-.184,2.334-2.048,3.563-3.455,5.037-.986,1.033-2.123,1.944-3.16,2.946a2.49,2.49,0,0,1-1.607.71,1.363,1.363,0,0,1-.968-.634c-.34-.533.023-1.479-.77-1.686-.736-.19-1.143.544-1.574,1.006-2.89,3.092-5.205,6.447-5.218,10.94,0,1.069-.039,2.307-1.407,2.771l-1.667-.577c.855-1.95.3-4.1.855-6.09-.585-2.094.651-3.692,1.506-5.375a19.159,19.159,0,0,1,2.625-3.167c-.175-.751-1.587-.294-1.277-1.424" transform="translate(-1285.604 -2432.89)" fill="#f3a42f"/>
          <path id="Trazado_1051780" data-name="Trazado 1051780" d="M1528.567,3413.252l1.2-.763a1.717,1.717,0,0,1,.456,1.642c-.33,3.945.781,7.615,2.23,11.192,1.521,3.754,3.511,4.64,7.391,3.443a35.26,35.26,0,0,0,5.888-2.86c1.806-.949,3.475-1.506,5.629-.559,1.805.793,3.9-.191,5.875-.241.656-.016,1.311-.191,1.976-.162,1.458.061,2.267.67,1.887,2.268a1.364,1.364,0,0,1-.618,1.111c-1.61-2.175-3.692-.559-5.514-.577a16.232,16.232,0,0,0-9.73,3.4,25.217,25.217,0,0,1-5.068,2.232c-2.3.959-2.308.951-.9,2.707l-8.714-4.942c-3.48-4.96-3.82-10.587-3.425-16.351.053-.782.329-1.616,1.437-1.542" transform="translate(-1423.16 -3180.429)" fill="#f69b6c"/>
          <path id="Trazado_1051781" data-name="Trazado 1051781" d="M1403.922,3392.455c1.251-1.889.57-4.131,1.134-6.167,1.051-3.8,3.6-6.537,6.153-9.3a1.133,1.133,0,0,1,1.624-.083,1.845,1.845,0,0,1,.229,2.52,5.852,5.852,0,0,1-.745,2.028,16.145,16.145,0,0,0-.277,11.428c.318.958.92,1.96.236,3.025l-8.354-3.453" transform="translate(-1308.45 -3146.983)" fill="#fdc33d"/>
          <path id="Trazado_1051782" data-name="Trazado 1051782" d="M1500.04,3434.6c-1.235-3.7-2.568-7.361-1.641-11.394a9.566,9.566,0,0,1,2.427-5.087l.8.38c-.848.469-.767,1.285-.8,2.076-.215,5.25.325,10.351,2.879,15.074.1.179-.055.492-.091.742l-3.57-1.792" transform="translate(-1396.214 -3185.673)" fill="#ea744b"/>
          <path id="Trazado_1051783" data-name="Trazado 1051783" d="M2102.214,4045.288c1.282-.848,2.546.075,3.823.05,2.684-.052,5.37-.012,8.055-.013a4.4,4.4,0,0,1,2.3.359c-2.014,2.051-4.528,3.467-6.723,5.287a78.9,78.9,0,0,1-7.454-5.683" transform="translate(-1959.256 -3769.86)" fill="#e17f25"/>
          <path id="Trazado_1051784" data-name="Trazado 1051784" d="M2519.711,3099.167c-3.267-2.2-6.982-3.038-10.8-3.574a2.288,2.288,0,0,1-2.281.084,64.424,64.424,0,0,1-11-4.595,6.392,6.392,0,0,1-3.347-3.513c-.36-1.109-.577-2.237.769-2.922a51.037,51.037,0,0,0,9.519,2.547,67.776,67.776,0,0,0,14.623.345,4.837,4.837,0,0,0,3.187-1.323.619.619,0,0,0-.777-.219c-3.124,2.358-6.778,1.831-10.274,1.744a51.88,51.88,0,0,1-11.578-1.49c-1.667-.425-3.1-1.514-4.858-1.622-1.886-.138-2.941-1.409-3.722-2.9a3.209,3.209,0,0,1,.226-3.732c.965-1.172,2.21-.965,3.458-.553a10.7,10.7,0,0,0,5.723,1.324,58.554,58.554,0,0,0,17.847-2.154,10.494,10.494,0,0,0,4.656-2.482c-2.515.865-4.651,1.719-6.839,2.415-6.184,1.966-12.466,2.91-18.954,1.772a12.245,12.245,0,0,1-2.592-.92c-1.747-.41-2.321-1.654-2.207-3.272a4.041,4.041,0,0,1,3.538-3.519c2.3-.234,4.617-.372,6.927-.505a53.612,53.612,0,0,0,8.6-1.423,2.391,2.391,0,0,0,2.17-2.761c-.076-2.383-.041-4.771-.006-7.156.014-.916-.058-1.883.791-2.551a4.391,4.391,0,0,0,2.846,2.953c2.08.91,3.532,2.985,5.967,3.271a3.419,3.419,0,0,1,2.662,1.068,28.336,28.336,0,0,1,6.761,7.41,21.445,21.445,0,0,0,7.371,6.958c3.615,3.95,4.371,8.648,3.447,13.712-.306,1.676-1.195,3.3.387,4.789-7.6-.517-14.945.958-22.247,2.8" transform="translate(-2319.447 -2848.376)" fill="#fdbe87"/>
          <path id="Trazado_1051785" data-name="Trazado 1051785" d="M2985.014,2810.573c-4.335-1.537-6.356-5.422-8.881-8.785a27.751,27.751,0,0,0-7.4-6.85c8.742-6.273,13.4-14.97,15.1-25.424,1.285-.806,1.983.062,2.568.979a8.963,8.963,0,0,1,.992,3.406c1.064,6.106.782,12.269.807,18.42,0,1.059-.065,2.123.042,3.176.121,1.2.371,2.368,1.624,2.963.94,1.132.738,2.478.569,3.75-.242,1.813-.26,3.646-.582,5.451a2.231,2.231,0,0,0,.558,2.35,13.584,13.584,0,0,0,1.12,1.164c4.383,4.8,4.34,10.681,4,16.613a1.989,1.989,0,0,1-1.431,1.954,2.641,2.641,0,0,1-1.523-.407c-.559-.615-.407-1.365-.391-2.086a46.406,46.406,0,0,0-.038-6.565c-.557-4.6-2.366-8.427-7.134-10.108" transform="translate(-2766.847 -2580.881)" fill="#ec962f"/>
          <path id="Trazado_1051786" data-name="Trazado 1051786" d="M3285.46,3369.561l-.773-.622c1.455-1.379,2.9-.751,4.351.012l2.378.993c3.327,2.623,4.36,6.338,4.9,10.289a1.982,1.982,0,0,1-.461,1.667c.187,2.929-.36,5.822-.411,8.74l-3.6-1.66c-.305-4.829-.724-9.638-2.622-14.171a11.056,11.056,0,0,0-3.755-5.248" transform="translate(-3061.317 -3139.082)" fill="#fde366"/>
          <path id="Trazado_1051787" data-name="Trazado 1051787" d="M3208.176,3376.768c2.953-.448,4.478,1.465,5.775,3.6,2.89,4.765,2.479,9.951,1.787,15.155a10.292,10.292,0,0,1-3.217-.457,1.277,1.277,0,0,0-1.077-.4c-1.1-.02-1.359-.445-.941-1.51a15.717,15.717,0,0,0-2.328-16.4" transform="translate(-2990.009 -3147.075)" fill="#fec33f"/>
          <path id="Trazado_1051788" data-name="Trazado 1051788" d="M3296.056,3389.241c3.093,1.366,4.079,4.326,5.183,7.1,1.375,3.455,1.353,7.211,1.961,10.832a1.527,1.527,0,0,1-.768,1.489l-3.266-1.04c1.07-1.732.962-3.669.855-5.562-.261-4.589-.412-9.236-3.965-12.817" transform="translate(-3071.913 -3158.761)" fill="#f8be3c"/>
          <path id="Trazado_1051789" data-name="Trazado 1051789" d="M161.035,883.893c2.28-.591,2.93-2.749,4.172-4.337.432,1.729.877,3.454,1.295,5.186a25.277,25.277,0,0,0,4.075,8.755.581.581,0,0,1-.1.773c-6.282-.036-12.58-.174-18.6,2.088a17.189,17.189,0,0,0-9.171,7.2,9.207,9.207,0,0,0-.833,7.823c.155.465-.072.731-.471.907-4.488.5-6.974,5.2-5.062,9.56,1,2.278,1,2.283-1.373,3.141a69.338,69.338,0,0,0-20.658,12.3,3.015,3.015,0,0,1-2.37,2.008c-2.568,1.97-4.262,4.689-6.1,7.261-7.685,10.753-14.215,22.223-20.783,33.669-4.152,7.236-8.392,14.423-12.593,21.632-2.513-.8-4.423-2.585-6.461-4.111a98.525,98.525,0,0,1-12.625-10.872c-5.162-5.444-9.99-11.153-12.921-18.184a8.649,8.649,0,0,1-.738-4.809c.334-2.095-.171-4.221-.224-6.323a53.2,53.2,0,0,1,3.308-20.639,87.009,87.009,0,0,1,39.921-43.88,149.936,149.936,0,0,1,25.128-9.9,136.879,136.879,0,0,1,19.616-4.965c4.895-.733,9.756-1.767,14.734-1.848.782.992,1.157,2.408,2.705,2.607a4.734,4.734,0,0,0,2.012,1.868c.872-.308,1.634.258,2.649.484-3.327-8.289-4.307-17.036-7.5-25.14a12.347,12.347,0,0,1-1.008-5.753c-.053-.65-.591-1.213-.347-1.917a1.922,1.922,0,0,1,2.514-1.476c1.308.864,1.439,2.327,1.772,3.648,2.2,8.737,4.517,17.444,7.041,26.094.056.191.094.386.149.577,1.473,5.107,1.473,5.107,6.732,6.245a5.792,5.792,0,0,1,2.112.323" transform="translate(-36.793 -789.318)" fill="#63b2f2"/>
          <path id="Trazado_1051790" data-name="Trazado 1051790" d="M910.765,2793.392c.612.68.28,1.529.412,2.294a3.02,3.02,0,0,0-1.51,2.179c-1.477,5.335-3.616,10.475-4.732,15.919a3.738,3.738,0,0,1-.763,1.594c-1.269.969-2.7.718-4.118.556a11.748,11.748,0,0,1-4.092-2.348c-4.477-3.414-8.507-7.355-12.869-10.906a20.834,20.834,0,0,1-3.429-4.1l-3.6-3.976c.538-1.425,1.083-.283,1.467.061,2.362,2.112,4.438,4.574,7.135,6.272,3.44,2.165,6.226,5.125,9.483,7.5a3.666,3.666,0,0,0,5.634-1.914c.924-2.9,1.075-5.938,1.562-8.342-.153,1.151-1.293,1.766-2.839,1.806a8.576,8.576,0,0,1-5.482-2.031c-4.26-3.251-7.406-7.5-10.519-11.782a8.222,8.222,0,0,0-1.239-1.539c-1.655-1.9-2.55-4.232-3.716-6.44,4.132,4.06,7.384,8.951,12.09,12.424,2.811.357,4.265-1.739,5.892-3.39.685-.7.047-1.643-.324-2.406-1.247-2.564-2.335-5.2-3.53-7.786-.358-.774-.806-1.664-.022-2.392.685-.637,1.515-.216,2.255.046,1.814.64,3.552,1.469,5.329,2.2,1.872.771,3.588.858,5.118-.723a1.688,1.688,0,0,1,1.8-.574c1,.575,1.079,1.595,1.24,2.574.783,4.76,1.989,9.435,2.852,14.179a1.471,1.471,0,0,0,.524,1.038" transform="translate(-816.485 -2585.653)" fill="#e9902b"/>
          <path id="Trazado_1051791" data-name="Trazado 1051791" d="M559.91,3131.2c4.04,3.572,8.049,7.179,12.131,10.7a48.709,48.709,0,0,0,7.806,5.973,3.777,3.777,0,0,1-4.777.074,96.768,96.768,0,0,0-32.393,4.694c-2.492.84-5.114,1.3-7.68,1.921-.647.156-1.381.32-1.837-.312-.491-.679.115-1.268.421-1.805A23.64,23.64,0,0,1,544,3143.028a85.491,85.491,0,0,1,16.441-5.778c1.426-.383,1.642-1.025,1.217-2.289-.445-1.324-1.533-2.339-1.743-3.762" transform="translate(-496.731 -2918.267)" fill="#f3a52f"/>
          <path id="Trazado_1051792" data-name="Trazado 1051792" d="M1017.867,2217.127c-.13.026-.322.007-.38.086-2.589,3.526-5.607,2.14-8.637.779-1.269-.57-2.548-1.121-3.848-1.616-.386-.147-.895-.554-1.273-.065-.337.436.048.881.237,1.287,1.337,2.877,2.621,5.781,4.055,8.609.744,1.467.7,2.54-.635,3.634a33.28,33.28,0,0,0-3.263,2.539,1.694,1.694,0,0,1-2.59-.5c.592-.637.3-1.333.2-2.057-.788-5.9-3.209-11.283-5.215-16.8-1.028-2.829-.064-4.116,2.836-4.709,3.984-.816,7.563.733,11.225,1.659,2.444.618,2.76.532,2.922-2.106.375-6.124-1.2-11.93-2.739-17.747-.287-1.083-.773-2.12-1-3.213-.615-2.947-2.43-5.062-4.59-6.979a3.787,3.787,0,0,1-1.643-3.033,4.841,4.841,0,0,1,2.37-2.009c.6-.135,1.18-.174,1.588.423.69.111.949.66,1.21,1.2a88.73,88.73,0,0,1,7.069,18.74,6.387,6.387,0,0,1,.21,1.772c-.293,1.818.3,3.554.672,5.261.936,4.25.921,8.618,1.794,12.867a1.833,1.833,0,0,1-.579,1.978" transform="translate(-928.383 -2026.91)" fill="#f3a62f"/>
          <path id="Trazado_1051793" data-name="Trazado 1051793" d="M620.024,3355.729l4.777-.074c1.486-.071,3,.289,4.452-.29.615-.747,1.445-.46,2.223-.484,2.425-.074,4.919.5,7.225-.742l.5.746c.781.848,1.934.038,3.041.806a16.161,16.161,0,0,0-5.895,9.161c-2.961-1.854-1.123-4.157-.5-6.578-2.888.8-5.606,1.666-8.38,2.289-12.048,2.7-24.117,5.33-36.3,7.356a20.714,20.714,0,0,1-8.491-.248c-.568-.145-1.338-.142-1.451-.819-.125-.752.6-1.184,1.163-1.444,1.92-.888,3.858-1.753,5.84-2.488a113.575,113.575,0,0,1,23.076-5.635,73.553,73.553,0,0,0,8.722-1.558" transform="translate(-541.685 -3126.047)" fill="#fadf61"/>
          <path id="Trazado_1051794" data-name="Trazado 1051794" d="M728.691,2297.823c.121,2.466-1.283,4.324-2.689,6.047-6.737,8.259-12.947,16.917-19.433,25.365a53.212,53.212,0,0,1-4.565,4.716c-.223.226-.487.542-.849.358-.45-.228-.375-.7-.23-1.045a18.7,18.7,0,0,1,1.12-2.329c4.326-7.363,8.582-14.768,13.043-22.048a63.3,63.3,0,0,1,8.948-12.112,5.433,5.433,0,0,1,.866-.819c.872-.546,1.74-1.54,2.834-.984,1.072.545.974,1.781.957,2.851" transform="translate(-653.155 -2138.753)" fill="#fce265"/>
          <path id="Trazado_1051795" data-name="Trazado 1051795" d="M840.228,2926.167c2.182.893,2.94,3.119,4.307,4.745a51.236,51.236,0,0,0,8.207,8.321,7.594,7.594,0,0,0,4.6,1.663c2.016.007,2.66-.724,2.5-2.81a2,2,0,0,1,.025-.586c.024-.107.152-.19.351-.421,1.014,2.3.465,4.56.184,6.772-.182,1.436-.68,2.829-.958,4.258-.323,1.662-.949,2.971-2.951,2.738-1.214-.141-.716.971-1.1,1.454-3.295-1.875-5.84-4.61-8.786-6.823a81.712,81.712,0,0,1-10.128-8.917c-.362-.379-.727-1.1-1.446-.428-.819-.771-1.65-1.527-2.45-2.318-.308-.3-.82-.658-.363-1.151s.936-.239,1.364.182c2.075,2.041,4.173,4.052,6.336,6.007a29.781,29.781,0,0,0,9.275,5.969,10.092,10.092,0,0,0,4.495.372c.466-.032,1.168-.066,1.325-.66.148-.563-.36-.955-.725-1.331-2.856-2.945-5.93-5.683-8.495-8.9-2.051-2.576-4.326-5-5.559-8.132" transform="translate(-775.451 -2727.177)" fill="#f3a52f"/>
          <path id="Trazado_1051796" data-name="Trazado 1051796" d="M3396.562,2460.116c.7-1.615.232-3.389.692-5.05.172-.62-.4-.912-1.01-.924-5.849-.113-8.908-4.1-11.505-8.515-3.654-6.213-3-12.83-1.393-19.464,1.884-7.766,6.113-14.29,10.877-20.541.9-1.175,1.478-1.234,2.187.1,4.771,9.015,9.568,18.082,11.416,28.206,1.746,9.569,1.58,19.154-3.466,27.922-2.448,4.253-5.747,7.777-10.842,8.955-.475.11-1.123.5-1.483-.041-.465-.69.3-1.047.665-1.454a25.642,25.642,0,0,0,3.91-6.191,2.177,2.177,0,0,0-.133-2.258.493.493,0,0,1,.084-.75" transform="translate(-3152.067 -2241.202)" fill="#fec53d"/>
          <path id="Trazado_1051797" data-name="Trazado 1051797" d="M3388.074,3402.976a23.435,23.435,0,0,0-4.437-11.956c.941.081,1.879.807,2.823.011a.766.766,0,0,1,1.149-.065,111.925,111.925,0,0,1,21.11,1.657,2.016,2.016,0,0,1,1.518.292,36.126,36.126,0,0,0,6.569,2.746,25.7,25.7,0,0,1,8.072,4.912c.587.5,1.291.991,1.034,1.959,1.211,1.391,2.709,2.622,3.585,4.2,3.5,6.3,3.21,12.648-.26,18.9a16.89,16.89,0,0,1-3.156,4.045c-2.259,2.155-3.682,2.434-6.607,1.15a27.909,27.909,0,0,1-7.562-5.042q-10.029-9.152-19.6-18.784c-.928-.935-1.727-2-2.616-2.972-.439-.481-.863-1.032-1.615-1.052" transform="translate(-3153.539 -3160.157)" fill="#fec53c"/>
          <path id="Trazado_1051798" data-name="Trazado 1051798" d="M3769.666,3399.5a27.168,27.168,0,0,0-12.123-7.253,14.288,14.288,0,0,1-5.069-2.656c.616-1.541,2.12-1.483,3.346-1.687,6.414-1.065,12.413-.269,17.445,4.311,2.618,2.385,4.254,5.2,3.963,8.913-.116,1.481-.019,2.98-.019,4.94-2.733-2.51-4.1-5.766-7.544-6.568" transform="translate(-3497.293 -3157.124)" fill="#ea8320"/>
          <path id="Trazado_1051799" data-name="Trazado 1051799" d="M3293.083,2347.724c.839-.435.942-1.435,1.563-2.037.59.567.014.943-.233,1.362a106.313,106.313,0,0,0-11.052,24.3,78.3,78.3,0,0,0-3.5,19.821c-.056,2.1-.38,4.2-.352,6.321-.22.281-.148.621-.2.939-.195,1.188-.625.681-1.054.133-.86-2.7.04-5.383.236-8.047.212-2.891.375-5.8.545-8.683a47.323,47.323,0,0,1,2.988-15.071c1.8-2.166,2.137-5.012,3.447-7.409a46.788,46.788,0,0,1,2.692-5.024c1.621-1.247,2.194-3.23,3.368-4.791.429-.572.662-1.294,1.287-1.719.088-.032.176-.062.265-.093" transform="translate(-3054.98 -2186.173)" fill="#df7b1c"/>
          <path id="Trazado_1051800" data-name="Trazado 1051800" d="M3270.712,3152.765c-1.451.369-2.9-.224-4.35-.013-1.22-.1-1.45-.739-1.294-1.9a65.372,65.372,0,0,0,.862-10.258c-1.052-1.11-.562-2.285-.153-3.46.437-.638.828-1.411,1.784-.67q1.576,8.149,3.151,16.3" transform="translate(-3042.992 -2922.894)" fill="#62addc"/>
          <path id="Trazado_1051801" data-name="Trazado 1051801" d="M3408.959,3229.234l-1.149.066c-.388-.055-.922.029-1.132-.193-.381-.4.157-.706.419-.9a104.586,104.586,0,0,0,11.595-10.791c.2-.2.433-.3.691-.074-.027.251-.055.5-.083.751a70.974,70.974,0,0,1-10.34,11.146" transform="translate(-3174.888 -2998.424)" fill="#de7b1c"/>
          <path id="Trazado_1051802" data-name="Trazado 1051802" d="M3279.924,3109.7c-.67-.287-.891.244-1.18.65-.531-.683-.786-1.315.317-1.691.841-.022.191-1.051.822-1.215q.022,1.128.042,2.257" transform="translate(-3055.354 -2896.127)" fill="#ec962f"/>
          <path id="Trazado_1051803" data-name="Trazado 1051803" d="M1510.721,898.224q2.95,10.28,5.895,20.561a82.315,82.315,0,0,0,4,11.691,11.57,11.57,0,0,1-4.034-1.844,70.443,70.443,0,0,0-2.222-14.875,57.73,57.73,0,0,0-5.287-13.458,4.449,4.449,0,0,0,1.645-2.075" transform="translate(-1406.453 -837.142)" fill="#242d72"/>
          <path id="Trazado_1051804" data-name="Trazado 1051804" d="M2071.709,2754.5c-.031,3.579-.132,7.159-.059,10.736a1.993,1.993,0,0,1-1.784,2.326,58.268,58.268,0,0,1-14.96,1.861,4.628,4.628,0,0,0-3.383.84c-1.786,1.58-1.588,3.689.543,5.3.159.038.222.1.191.179s-.076.137-.12.137c-1.334-.063-2.847-.244-3.45,1.263-.64,1.6.141,2.963,1.406,4.015.658.547,1.363,1.038,2.047,1.553q.412.125.067.383c-.686,2.311-.184,3.632,2.049,5.142a39.233,39.233,0,0,0,7.686,3.555c2.011.8,4.1,1.4,6.16,2.094-1.1,2.792-3.537,3.365-6.1,3.461-4.416.164-8.838.152-13.256.233-.851.015-1.7.116-2.55.177-.608.923-1.571.884-2.5.888-6.167.028-12.335.067-18.5-.021-1.9-.027-3.763-.585-5.658-.8a5.7,5.7,0,0,1-3.584-3.255q0-.63.007-1.258a3.728,3.728,0,0,1,2.45-1.15,32.476,32.476,0,0,0,5.535-1.566,2.86,2.86,0,0,0,2.053-2.639,3.978,3.978,0,0,1,.826-2.207,2.757,2.757,0,0,0,.521-2.431,2.126,2.126,0,0,1,1.412-2.7c1.343-.62,2.141-1.513,1.677-3.132a1.7,1.7,0,0,1,.97-1.978c1.252-.8,2.172-1.85,1.89-3.418-.316-1.749-1.735-2.435-3.279-2.777-3.171-.7-6.416-.951-9.612-1.5-1.533-.263-3.216-.19-4.406-1.506a3.425,3.425,0,0,1-.251-1.746c.025-1.942.585-2.4,2.434-1.909a28.655,28.655,0,0,0,4.787,1.127,8.876,8.876,0,0,1,1.337.082,6.4,6.4,0,0,0,4.421-.143,9.354,9.354,0,0,0,2.615-.9,1.955,1.955,0,0,0,1.116-1.944c-.087-.906-.88-1.1-1.583-1.251-4.14-.862-8.25-1.857-12.38-2.764-2.7-.592-2.787-.7-2.761-3.369.051-5.152-.137-10.305.1-15.458,2.535-3.709,6.016-5.113,10.523-5.221q14.624-.35,29.246-.316a23.176,23.176,0,0,1,2.781.063c1.555.3,1.841,1.144.929,2.369a23.788,23.788,0,0,1-4.936,5.354c-2.69,1.953-4.464,4.822-6.7,7.236a107.594,107.594,0,0,0-6.864,8.429c-.744.429-1.5.835-2.28,1.2a6.729,6.729,0,0,0-3.506,6.94,7.031,7.031,0,0,0,6.737,5.669c.264,0,.53,0,.793-.015,3.182-.446,5.572-1.848,6.305-5.24a10.18,10.18,0,0,0,.357-3.472,3.076,3.076,0,0,1,1.436-2.262c6.5-5.5,12.638-11.388,18.692-17.371.718-.709,1.1-1.823,2.247-2.08q.057,7.592.114,15.186" transform="translate(-1878.636 -2546.668)" fill="#263173"/>
          <path id="Trazado_1051805" data-name="Trazado 1051805" d="M1593.141,2765.39c-.024,5.5-.025,11-.095,16.494-.013,1.013.529,1.182,1.3,1.345,4.665.983,9.328,1.972,13.982,3.006.829.184,2-.031,2.191,1.259a2.989,2.989,0,0,1-1.337,3.281,6.285,6.285,0,0,1-3.377,1.016,13.876,13.876,0,0,1-4.438,0l-1.161-.115c-.063-.268.118-.4.3-.523-2.7,0-5.1-1.243-7.658-1.832-2.314-.533-4.711-.947-6.947.42-.438.267-1.125.46-1.045,1.058s.766.618,1.293.684c2.159.611,4.4.882,6.512,1.683a3.335,3.335,0,0,1,.729.588c4.194.655,8.39,1.3,12.583,1.971a14.682,14.682,0,0,1,2.328.514c1.529.51,2.756,1.374,2.915,3.154a3.8,3.8,0,0,1-2.1,3.961c-.861.457-1.185.714-.663,1.8.653,1.364-.416,2.85-2.328,3.571-.956.361-2.091.481-.855,1.821a1.155,1.155,0,0,1,.156.569c.1.6.24,1.383-.234,1.707-2.147,1.464-.51,5.258-4,6.017-2.711.59-5.369,1.455-8.135,1.837.311-.937.207-1.561-1.014-1.441-1.775.174-3.566.231-5.326.5-1.507.227-2.938.728-4.227-.66-.5-.537-1.261-.118-1.86.18-2.369,1.177-4.721,2.387-7.1,3.538a10.9,10.9,0,0,1-3.255.829c-2.967.424-4.69-1.226-5.663-3.661-1.769-4.429-3.437-8.926-2.272-13.857,1.524-2.073,3.84-3.37,5.343-5.476a10.759,10.759,0,0,0,1.417-2.112,1.284,1.284,0,0,1,.349-.422c1.3-.99,1.964-2.472,2.841-3.77,2.326-3.442,4.647-6.885,7.154-10.2,3.1-2.744,6.818-2.137,10.393-1.687,2.827.356,2.805.566,2.8-2.383-.007-5.1-.026-10.193-.023-15.289,0-1.045-.125-2.151.874-2.906.838,1.273.355,2.416-.346,3.538" transform="translate(-1455.732 -2574.037)" fill="#fdbe86"/>
          <path id="Trazado_1051806" data-name="Trazado 1051806" d="M1965.884,1532.763q.048-.387.1-.773c.535.976,1.721,1.5,1.9,2.723,3.494,5.8,7.509,11.065,14.1,13.668.74.292,1.49.556,2.235.833.267.521.441,1.087,1.089,1.333a22.157,22.157,0,0,1,2.076,1.16c5.711,2.91,9.363,2.276,14-2.144,2.9-2.76,4.723-6.181,6.591-9.608a10.294,10.294,0,0,1,1.2-2.049c.574-.641,1.184-.866,1.789-.011a7.879,7.879,0,0,1,.356,3.512,52.436,52.436,0,0,0,.889,10.6c.088,2.055,2.14,2.827,2.914,4.436.874,1.766.32,3.248-.832,4.686a25.468,25.468,0,0,0-2.569,3.465c-2.038,1.661-4.016,3.4-6.177,4.9a35.525,35.525,0,0,1-6.834,1.952,4.084,4.084,0,0,1-2.709-.087c-1.084-1.812.2-3.331,1.247-4.111,2-1.493,1-3.324,1.139-4.994.067-.813-1-.7-1.593-.793-5.511-.835-10.278-3.333-14.749-6.51-5.283-3.755-9.054-8.843-12.534-14.19-.775-1-1.051-2.316-1.982-3.226a6.809,6.809,0,0,0-1.643-4.779" transform="translate(-1832.197 -1427.81)" fill="#f39a6d"/>
          <path id="Trazado_1051807" data-name="Trazado 1051807" d="M2381.957,2750.014c1.879-3.693,4.963-6.448,7.508-9.62,1.357-1.691,2.865-3.261,4.208-4.964.653-.828,1.619-1.1,2.367-1.7a31.2,31.2,0,0,0,4.614-5.387c.327-.418-.08-.534-.4-.621.149-.969.959-1.03,1.649-1.07a29.15,29.15,0,0,1,5.921.076c3.092.45,4.683,2.177,5.065,5.352q.025.846.05,1.693a4.823,4.823,0,0,1-1.741,2.492c-1.656,1.418-3.134,3.044-4.676,4.6-4.665,4.69-9.655,9.022-14.638,13.363a1.82,1.82,0,0,0-.792,1.084c-.87.042-1.045-.749-1.34-1.256-1.36-2.345-3.493-3.227-6.048-3.4-.641-.043-1.342.074-1.742-.634" transform="translate(-2219.975 -2541.121)" fill="#2d408a"/>
          <path id="Trazado_1051808" data-name="Trazado 1051808" d="M2622,1623.659c-1.131-2.554-.805-5.317-1.066-7.984-.231-2.363-.087-4.762-.109-7.146a.243.243,0,0,1,.07-.389,67.565,67.565,0,0,1,13.653.808,8.54,8.54,0,0,1,5.161,3.15,7.021,7.021,0,0,1-.109,8.507c-.733,1.016-1.6,1.938-2.4,2.9-1.013.846-1.494,2.365-3.107,2.46a37,37,0,0,1-9.753-1.011,3.427,3.427,0,0,1-2.339-1.3" transform="translate(-2442.535 -1498.768)" fill="#e6791c"/>
          <path id="Trazado_1051809" data-name="Trazado 1051809" d="M3140.174,2490.394c-.48.493-.346,1.1-.317,1.69q-.225,1.741-.451,3.48c-.486.553-.941.661-1.38-.063a6.144,6.144,0,0,1-1.022-3.346c.048-4.621.119-9.246-.016-13.864a50.726,50.726,0,0,0-1.2-9.568c-.271-1.216-.806-2.273-2.335-2.229,1.079-5.424-.119-10.615-1.526-15.809-.623-2.3-2.026-4.273-2.661-6.62a55.941,55.941,0,0,1,5.3,4.918,51.35,51.35,0,0,1,4.713,6.846c1.12,1.88,2.38,2.322,4.211,1.162.232-.147.455-.273.713-.061.427.405,0,.808,0,1.212a4.45,4.45,0,0,1-.372,1.925,37.266,37.266,0,0,0-2.436,12.367c-.393,5.987-.813,11.972-1.222,17.958" transform="translate(-2916.467 -2277.863)" fill="#f3a52f"/>
          <path id="Trazado_1051810" data-name="Trazado 1051810" d="M2473.789,2035.7c4.18-2.666,8.215-5.554,12.556-7.975a30.326,30.326,0,0,1,6.807-2.688c-.377,2.519-2.034,4.135-3.482,5.681a65.778,65.778,0,0,1-29.93,18.636,26.424,26.424,0,0,1-3.492.672,1.991,1.991,0,0,1-2.279-.781c-.917-1.358-.025-2.39.619-3.468,3.859-3.392,8.707-4.969,13.233-7.123,1.561-.743,3-1.674,4.514-2.483.47-.251.874-.6,1.453-.47" transform="translate(-2286.725 -1887.331)" fill="#f4a52e"/>
          <path id="Trazado_1051811" data-name="Trazado 1051811" d="M1679.471,1625.068a4.687,4.687,0,0,1,2.752-3.4,17.837,17.837,0,0,1,8.16-2.149c3.366-.124,6.741-.026,10.112-.025a2,2,0,0,1,.966,1.636,20.522,20.522,0,0,1-.963,10.841,1.987,1.987,0,0,1-.719.921c-1.793.79-3.613.363-5.441.141a33.751,33.751,0,0,1-9.7-2.609c-2.424-1.078-4.385-2.66-5.166-5.352" transform="translate(-1565.261 -1509.324)" fill="#e6791c"/>
          <path id="Trazado_1051812" data-name="Trazado 1051812" d="M2074.423,2709.812c-1.443-3.619-2.989-4.709-6.932-4.667-1.9.021-3.832-.339-5.7.31-8.015.035-16.032-.048-24.042.157-3.7.094-7.411.131-11.109.331-2.731.147-4.807,1.675-6.611,3.63-.274.3-.281,1.23-1.1.64-.349-1.226.13-2.369.345-3.539a8.9,8.9,0,0,1,2.568-3.167,4.748,4.748,0,0,1,2.518-.407c14.119-.348,28.24-.527,42.364-.423a21.228,21.228,0,0,1,5.865.489c2.449,1.708,1.9,4.245,1.838,6.647" transform="translate(-1881.514 -2518.859)" fill="#487bc9"/>
          <path id="Trazado_1051813" data-name="Trazado 1051813" d="M1171.224,2194.57c-1.442-5.51-2.847-11.021-5.626-16.076a53.478,53.478,0,0,1-2.3-5.493c1.113-1.6,1.351.082,1.636.543a76.281,76.281,0,0,1,6.3,13.057,90.478,90.478,0,0,1,6.1,25.782c.272,3.825.812,7.63.714,11.478-.018.711.2,1.475-.368,2.095-.889-.233-.928-1-1.1-1.705q-2.028-8.576-3.212-17.309c-.485-3.522-1.207-7-2.025-10.454a3.143,3.143,0,0,1-.123-1.917" transform="translate(-1084.189 -2024.601)" fill="#fce267"/>
          <path id="Trazado_1051814" data-name="Trazado 1051814" d="M2255.47,1557.9q-.025.2-.07.39c-1.045.217-1.136,1.211-1.515,1.931-2.089,3.974-4.212,7.87-7.568,11.024-5.765,5.417-10.795,4.331-17.088.045-.544-.37-.883-.846-.1-1.358a19.468,19.468,0,0,0,11.889-1.166c5.834-2.412,9.9-6.752,12.944-12.154.453-.8.922-1.6,1.384-2.392q.062,1.841.125,3.681" transform="translate(-2077.112 -1448.529)" fill="#ec845e"/>
          <path id="Trazado_1051815" data-name="Trazado 1051815" d="M1297.146,3095.136c.04,1.11-.566,1.51-1.593,1.461-2.617-.126-5.246.141-7.855-.235a78.821,78.821,0,0,1,3.054-11.468c.787-2.52,1.574-5.041,2.409-7.546.344-1.03.854-1.748,1.661-.271q1.162,9.029,2.324,18.059" transform="translate(-1200.13 -2867.043)" fill="#5fb0f0"/>
          <path id="Trazado_1051816" data-name="Trazado 1051816" d="M1893.38,1868.659c3.561.141,6.8-1.327,10.183-2.052-1.032,1.719-2.779,2.6-4.339,3.7l-2.731,1.9c-5.294.971-10.372-.084-15.422-1.575-6.6-1.949-12.248-5.575-17.6-9.762a16.041,16.041,0,0,1-4.33-4.548.853.853,0,0,1-.256,1.376c-.612.339-1.216-.147-1.475-.686-.675-1.406-2.233-2.674-.881-4.49a5.369,5.369,0,0,1,2.943-1.075,1.651,1.651,0,0,1,1.379.621c.353.587.043,1.379.595,1.908a24.406,24.406,0,0,0,10.117,9.233c6.046,2.975,12.343,5.051,19.211,4.837.9-.028,1.875-.164,2.6.619" transform="translate(-1729.782 -1725.537)" fill="#66a3e6"/>
          <path id="Trazado_1051817" data-name="Trazado 1051817" d="M2114.231,2681.759a.726.726,0,0,1-.844.628c-11.162-.678-22.337-.251-33.5-.19-3.348.018-6.722.225-10.086.269a26.105,26.105,0,0,1-6.312-.366c1.607-1.61,3.707-1.615,5.744-1.656,8.209-.166,16.421-.258,24.631-.407,5.23-.1,10.459-.258,15.689-.355a5.148,5.148,0,0,1,4.682,2.078" transform="translate(-1923.161 -2497.452)" fill="#62a7e8"/>
          <path id="Trazado_1051818" data-name="Trazado 1051818" d="M2061.832,2161.466a4.837,4.837,0,0,1-.848,3.529c-.741.916-.051,1.7.347,2.5a8.607,8.607,0,0,1,1.728,3.958c.33.85-.225,1.635-.182,2.464.352,5.18-.367,10.074-3.926,14.158a25.926,25.926,0,0,1-2.577,2.468c-.522.454-1.061,1.036-1.835.195-.923-1,.157-1.294.584-1.662a15.239,15.239,0,0,0,5.521-14.171c-.095-.769-.315-1.523-.478-2.283-.637-.44-.583-1.215-.889-1.815a23.8,23.8,0,0,0-2-4.942c-.546-.458-1.127-.882-1.632-1.382-1.823-1.809-1.438-4.307.921-6.151a3.525,3.525,0,0,1,5.262,3.135" transform="translate(-1914.485 -2011.118)" fill="#1a1949"/>
          <path id="Trazado_1051819" data-name="Trazado 1051819" d="M2134.143,2099.158c-2.306,2.5-5.134,4.36-7.819,6.4-1,.755-1.845.36-2.718-.238-2.073-1.42-4.159-2.82-6.239-4.228a10.582,10.582,0,0,1-4.475-2.72c-.51-.436-1.187-.937-.616-1.788.1-.062.321-.176.315-.187-.241-.541-1.241-.854-.7-1.6.577-.8,1.362-.2,1.972.085a42.422,42.422,0,0,0,18.818,3.9c.51-.009,1.077-.127,1.465.381" transform="translate(-1968.126 -1951.971)" fill="#5fa4ec"/>
          <path id="Trazado_1051820" data-name="Trazado 1051820" d="M1683,2121.294a3.388,3.388,0,0,1,.315,1.867,40.194,40.194,0,0,1-17.509-5.185,62.173,62.173,0,0,1-15.266-12.2c-.165-.173-.283-.389-.712-.988l13.193,7.616c1.643.04,2.655,1.358,4.01,1.986,5.266,2.435,10.444,5.069,15.969,6.9" transform="translate(-1537.636 -1961.657)" fill="#f0a12f"/>
          <path id="Trazado_1051821" data-name="Trazado 1051821" d="M1693.864,1712.569l-3.155,1.135a6.639,6.639,0,0,1-3.867,1.589,10.613,10.613,0,0,1-6.125-4.882c-1.817-2.5-3.206-5.137-2.7-8.384,5.1,6.671,12.544,7.127,20,7.56.458,1.657-.8,2.252-1.842,2.984-.77.283-1.541-.162-2.314,0" transform="translate(-1563.81 -1586.284)" fill="#d05c14"/>
          <path id="Trazado_1051822" data-name="Trazado 1051822" d="M2420.478,2198.03a7.174,7.174,0,0,0-1.034,3.168c-1.749,6.862-.326,12.848,4.986,17.7-1.318,1.585-2.286,1.331-3.5-.164a19.422,19.422,0,0,1-4.369-13.693c.036-.728.042-1.457.063-2.186.031-1.4-.322-2.846.512-4.146a9.538,9.538,0,0,1,1.559-3.3,3.043,3.043,0,0,0,.578-2.547c-.55-2.351-.083-3.8,1.416-4.384,2.9-1.133,4.478.162,4.355,3.567a1.8,1.8,0,0,1-.937,1.833,17.763,17.763,0,0,0-3.629,4.154" transform="translate(-2252.199 -2039.279)" fill="#1e1b4b"/>
          <path id="Trazado_1051823" data-name="Trazado 1051823" d="M1806.753,1874.926c1.353-.354,2.6-1.087,4.027-1.178-.348,1.959,1.118,3.053,2,4.437.068-1.272-1.161-2.117-1.024-3.945,3.135,4.886,7.367,7.932,11.7,10.825,7.614,5.085,15.933,7.96,25.2,7.677a3.087,3.087,0,0,1,1.938.25l-.7.523c-7.6.1-15.008-.79-21.94-4.313.469,1.193,1.927,1.064,2.481,2.117-.953.455-1.734-.362-2.581-.149a2.356,2.356,0,0,1-2.334-.767c-5.63-4.613-11.636-8.731-17.323-13.267-.707-.563-1.539-1.1-1.446-2.209" transform="translate(-1683.88 -1746.327)" fill="#4886d6"/>
          <path id="Trazado_1051824" data-name="Trazado 1051824" d="M1724.454,1829.793c6.76,5.771,14.028,10.883,21.1,16.244l5.266,4.277a2.122,2.122,0,0,0-1.894,1.23c-1.04-2.243-2.7-3.453-5.262-3.136a2.455,2.455,0,0,0-1.157-1.874c-7.717-5.151-14.665-11.295-21.891-17.081-1.309-1.048-2.425-2.236-2.13-4.13l5.964,4.47" transform="translate(-1601.582 -1701.195)" fill="#f9dd5a"/>
          <path id="Trazado_1051825" data-name="Trazado 1051825" d="M2179.614,2258.432a1.2,1.2,0,0,1,.266,1.58c-.662,1.482-1.294,2.979-1.938,4.47-3.314,2.4-7.209,2.237-10.961,2.174-2.138-.036-4.518.124-6.412-1.412l-1.183-4.015c5.627,2.67,11.253,3.773,17.019.289,1.344-.812,3.18-.96,3.209-3.085" transform="translate(-2012.539 -2104.851)" fill="#fce265"/>
          <path id="Trazado_1051826" data-name="Trazado 1051826" d="M1275.561,2499.416c1.835,7.505,3.125,15.122,4.643,22.692.582,2.9,1.208,5.8,1.813,8.694q.4,3.192.79,6.385c-.363.931-.576.119-.644-.1a46.584,46.584,0,0,1-1.328-4.74c-.694-3.621-1.756-7.167-2.188-10.843a2.706,2.706,0,0,0-.636-1.834,144.021,144.021,0,0,0-2.478-17.989c-.171-.766-.559-1.513.028-2.261" transform="translate(-1188.527 -2329.448)" fill="#d8741e"/>
          <path id="Trazado_1051827" data-name="Trazado 1051827" d="M1863.808,2221.369c-.308.632-.74.294-1.167.167-6.76-2-12.816-5.465-18.812-9.054.95-.769,1.673.064,2.31.469,3.476,2.209,7.09,3.879,11.351,3.555.762-.057,1.377.438,2.069.649.709.218,1.452.371,1.679-.676,1.939,1.06,2.19,3.008,2.57,4.889" transform="translate(-1718.441 -2061.733)" fill="#fde061"/>
          <path id="Trazado_1051828" data-name="Trazado 1051828" d="M2176.774,2348.134a9.431,9.431,0,0,1,3.521.382c4.738.861,9.292-.115,13.854-1.145q-.49,1.976-.977,3.949c-.184-.8-.78-.477-1.265-.463a73.516,73.516,0,0,1-12.54-.72,2.3,2.3,0,0,0-2.229.4,5.211,5.211,0,0,1-.364-2.407" transform="translate(-2028.746 -2187.742)" fill="#f3a833"/>
          <path id="Trazado_1051829" data-name="Trazado 1051829" d="M3346.732,2386.784c-.387-.405.069-.808,0-1.212a50.252,50.252,0,0,1,3.943-10.736,34.754,34.754,0,0,1,4.919-6.692c.446-.481.937-1.127,1.5-.091v-.007c-1.732,2.089-2.759,4.633-4.386,6.789l-5.979,11.95" transform="translate(-3118.995 -2206.501)" fill="#fce164"/>
          <path id="Trazado_1051830" data-name="Trazado 1051830" d="M2491.66,1854.381l4.336-3.7,5.326-4.421c2-2.562,5.133-3.773,7.307-6.128,1.223-.886,2.327-1.919,3.521-2.842a2.875,2.875,0,0,1,1.946-.809l2.785-2.13c-.347,1.3-1.4,2.054-2.273,2.947-4.195,4.276-9.281,7.38-14.123,10.812-2.156,1.528-4.187,3.231-6.284,4.842a4.743,4.743,0,0,1-2.541,1.425" transform="translate(-2322.219 -1709.612)" fill="#f6e083"/>
          <path id="Trazado_1051831" data-name="Trazado 1051831" d="M2474.562,2187.972a5.959,5.959,0,0,1,3.054-4.5,7.121,7.121,0,0,0,1.512-1.49c.679.788,1.447.628,2.334.354a48.416,48.416,0,0,0,10.162-4.462c.538-.315,1.019-.987,1.724-.282-5.246,3.427-11.112,5.7-16.5,8.86-.787.461-1.525,1.009-2.286,1.518" transform="translate(-2306.283 -2029.221)" fill="#fbdc5f"/>
          <path id="Trazado_1051832" data-name="Trazado 1051832" d="M1922.354,1629.882c.761-.86,1.885-1.427,2.158-2.681,1.982-3.4,1.554-7.113,1.349-10.789-.044-.787-.212-1.567-.323-2.349.031-.145.063-.289.1-.433,1.969-.051,1.462,1.963,2.349,2.815.966,5.891-.594,10.936-5.037,15.01a2.3,2.3,0,0,1-1.724.843c-.532-.582-.248-1.051.208-1.495.112-.5.528-.7.924-.921" transform="translate(-1790.303 -1503.897)" fill="#fcd8ac"/>
          <path id="Trazado_1051833" data-name="Trazado 1051833" d="M1532.107,1789.751l.471-.907c.42-.087.788-.922,1.273-.069a43.019,43.019,0,0,0,6.281,8.256c-2.538-2.164-5.388-3.854-7.972-5.907-.555-.442-.77-.887-.054-1.374" transform="translate(-1427.494 -1666.778)" fill="#ec9d2b"/>
          <path id="Trazado_1051834" data-name="Trazado 1051834" d="M1681.752,3089.275c-.052,1.871-1.726,2.792-2.552,4.212-1.881,3.236-4.088,6.284-6.193,9.388-.274.4-.424,1.264-1.277.686-.1-2.056,1.019-3.435,2.551-4.585l3.981-6.01c1.261-1.137,2.011-2.759,3.488-3.692" transform="translate(-1558.041 -2879.194)" fill="#fcdaae"/>
          <path id="Trazado_1051835" data-name="Trazado 1051835" d="M2110.944,1396.694c4.049,0,8.1-.006,12.146.008.511,0,1.16-.225,1.493.262.384.563-.257.961-.511,1.375-2.214,3.59-4.9,6.719-9.263,7.585-6.307,1.251-12.866-.208-16.555-5.839a10.525,10.525,0,0,1-.747-1.4c-.6-1.322-.5-2.057,1.294-2.014,4.046.1,8.1.03,12.145.03Z" transform="translate(-1954.559 -1301.674)" fill="#f48c61"/>
          <path id="Trazado_1051836" data-name="Trazado 1051836" d="M1904.312,898.9a19.7,19.7,0,0,1,7.445,1.554c.947.4,1.9.94,1.566,2.183-.354,1.314-1.408,1.414-2.565,1.155a26.684,26.684,0,0,0-7.1-.821,18.8,18.8,0,0,0-7.423,2.057c-1.058.516-2.2.943-2.96-.387s.26-2.142,1.178-2.78a16.825,16.825,0,0,1,9.855-2.963" transform="translate(-1764.279 -837.776)" fill="#1a1850"/>
          <path id="Trazado_1051837" data-name="Trazado 1051837" d="M2426.009,901.784a4.32,4.32,0,0,1-2.082-.613,18.428,18.428,0,0,0-12.047-1.236c-1.152.24-2.718.989-3.25-.746s1.048-2.235,2.28-2.674a16.22,16.22,0,0,1,15.52,2.06,1.987,1.987,0,0,1,1.006,2.365c-.218.69-.8.811-1.427.844" transform="translate(-2244.737 -834.527)" fill="#19184e"/>
          <path id="Trazado_1051838" data-name="Trazado 1051838" d="M1742.188,860.509a101.088,101.088,0,0,1-5.793-15.369c-1.348-4.214-2.53-8.482-3.747-12.737-.157-.548-.841-1.427.111-1.669,1-.254.908.829,1.111,1.492,2,6.566,3.524,13.284,6.158,19.652a4.009,4.009,0,0,0,.935,1.715l1.225,6.916" transform="translate(-1614.463 -774.206)" fill="#3f5099"/>
          <path id="Trazado_1051839" data-name="Trazado 1051839" d="M2699.863,829.6c1.193-2.676,1.379-5.6,2.018-8.407.425-1.868.614-3.79.989-5.671.118-.589.129-1.368,1.2-1.612-.485,2.849-.9,5.608-1.434,8.342-1.16,5.911-2.383,11.81-3.592,17.712a1.829,1.829,0,0,1-.3.507c.162-3.646.618-7.261,1.126-10.872" transform="translate(-2515.214 -758.559)" fill="#424986"/>
          <path id="Trazado_1051840" data-name="Trazado 1051840" d="M2235.354,1272.891l1.2-1.041c.487,2.007-.5,3.674-2.635,4.58-2.869,1.218-6.819-.2-8.552-3.088.715-.473,1.209.352,1.845.311,2.783.485,5.606,1.389,8.144-.761" transform="translate(-2074.033 -1185.36)" fill="#24173e"/>
          <path id="Trazado_1051841" data-name="Trazado 1051841" d="M2409.033,1048.589c-1.983-1.022-2.052-1.633-.34-2.812,3.042-2.1,6.182-2.9,9.591-.829.6.365,1.075.635.212,1.2-.854.738-1.645-.072-2.416-.192a7.035,7.035,0,0,0-7.047,2.628" transform="translate(-2243.757 -972.764)" fill="#e99570"/>
          <path id="Trazado_1051842" data-name="Trazado 1051842" d="M1989.056,1071.392c-.984.051-1.546.319-.63,1.474-3.767-1.707-7.234-1.839-10.285,1.814.708-4.375,6.641-5.945,10.915-3.288" transform="translate(-1843.621 -997.322)" fill="#261c3c"/>
          <path id="Trazado_1051843" data-name="Trazado 1051843" d="M2429.091,1067.4c-.384-1.092.461-1.548,1.12-2.034,2.682-1.98,5.492-1.724,8.344-.4.563.471,1.357.736,1.586,1.85a15.549,15.549,0,0,0-4.97-1.415c-2.335-.084-4.051,1.358-6.079,2" transform="translate(-2263.814 -991.576)" fill="#201335"/>
          <path id="Trazado_1051844" data-name="Trazado 1051844" d="M2260.63,1287.161c-1.924,2.4-4.534,2.648-8.144.761,2.726-.141,5.506.315,8.144-.761" transform="translate(-2099.309 -1199.63)" fill="#d5886d"/>
          <path id="Trazado_1051845" data-name="Trazado 1051845" d="M1632.382,843.764a2.029,2.029,0,0,1-2.092.457,5.154,5.154,0,0,1-1.961-3.108c-3.116-10.064-5.743-20.265-8.564-30.411-.356-1.28-.825-2.516-1.294-3.755-.428-1.13-.508-2.213.666-3l-.011.041c1.631-.535,1.853.625,2.162,1.754,2.734,10,5.518,19.983,8.586,29.885q1.26,4.067,2.508,8.138" transform="translate(-1508.14 -749.188)" fill="#f6d44b"/>
          <path id="Trazado_1051846" data-name="Trazado 1051846" d="M2072,3692.329l26.653-.064,8.725.127c-6.644,1.883-13.211,4.11-20.3,3.563a32.964,32.964,0,0,1-11.691-2.687c-1.1-.519-2.4-.125-3.385-.939" transform="translate(-1931.1 -3441.179)" fill="#fac23a"/>
          <path id="Trazado_1051847" data-name="Trazado 1051847" d="M1557.369,3014.13l-2.551,4.585a2.059,2.059,0,0,0-.324.1,33.812,33.812,0,0,1-8.213-20.583c4.224,4.927,7.505,10.518,11.088,15.894" transform="translate(-1441.128 -2794.346)" fill="#e58223"/>
          <path id="Trazado_1051848" data-name="Trazado 1051848" d="M2550.375,3307.009a2.79,2.79,0,0,1-.071-.316c4.089,1.8,8.292,1.082,12.483.555a61.873,61.873,0,0,0,15.378-4.462,8.7,8.7,0,0,1,1.327-.407,2.24,2.24,0,0,1,.707.138,5.943,5.943,0,0,1-3.169,3.13,43.674,43.674,0,0,1-24.722,2.256,2.9,2.9,0,0,1-1.932-.893" transform="translate(-2376.875 -3077.798)" fill="#f39c6b"/>
          <path id="Trazado_1051849" data-name="Trazado 1051849" d="M2551.464,3471.425a1.031,1.031,0,0,1-.067-.383c3.481.73,6.934,1.665,10.45,2.138,4.961.668,9.968,1,14.938-.241.031-.541-.753-.217-.728-.67s.431-.418.74-.422c1.234-.013,2.468-.006,3.868-.006a5.147,5.147,0,0,1-4.543,3.031,63.238,63.238,0,0,1-12.617-.048c-1.9-.174-3.773-.6-5.67-.788-2.405-.232-4.135-2.02-6.37-2.612" transform="translate(-2377.893 -3235)" fill="#f6a16f"/>
          <path id="Trazado_1051850" data-name="Trazado 1051850" d="M1565.914,805.222a2.085,2.085,0,0,0-.332,2.045c3.451,8.857,5.131,18.231,7.964,27.268,1.148,3.662,1.915,7.447,3.521,10.961a14.263,14.263,0,0,0-2.9-.594c-2.331,0-3.052-1.43-3.656-3.359-3.082-9.843-5.588-19.84-8.175-29.818a7.588,7.588,0,0,0-1.255-3.289,14.209,14.209,0,0,1,4.838-3.215" transform="translate(-1454.917 -750.464)" fill="#385db2"/>
          <path id="Trazado_1051851" data-name="Trazado 1051851" d="M920.245,1720.091c-.421,6.879-1.752,6.688-7.094,5.172a10.891,10.891,0,0,1-5.412-3.5c-2.2-2.557-.47-8.231,2.806-9.122,4.136-1.124,9.705,3.155,9.7,7.452" transform="translate(-845.091 -1596.004)" fill="#91cdf9"/>
          <path id="Trazado_1051852" data-name="Trazado 1051852" d="M323.807,1958.247a10.624,10.624,0,0,1,5.878,1.786c2.391,1.536,2.8,3.475,1.264,5.911a18.8,18.8,0,0,1-2.21,2.79,4.639,4.639,0,0,1-6.394.484c-2.4-1.71-3.564-5.009-2.491-7.1a17.979,17.979,0,0,0,1.039-1.916c.561-1.531,1.54-2.264,2.913-1.957" transform="translate(-297.729 -1825.016)" fill="#92cefa"/>
          <path id="Trazado_1051853" data-name="Trazado 1051853" d="M428.3,2404.707a4.277,4.277,0,0,1,3.741,2.511,2.974,2.974,0,0,1-.553,3.649c-1.322,1.562-2.633,3.2-5.023,3.012-1.382-.106-2.856-.509-3.335-1.76a5.2,5.2,0,0,1,5.171-7.413" transform="translate(-393.915 -2241.176)" fill="#93cefa"/>
          <path id="Trazado_1051854" data-name="Trazado 1051854" d="M1120.439,1380.742c2.051-1.521,2.065-1.711-.06-2.854-.7-.376-1.051-.667-.694-1.507a6.026,6.026,0,0,1,6.42-3.24,3.517,3.517,0,0,1,2.5,4.612,6.582,6.582,0,0,1-4.737,4.552c-1.479.451-2.114-1.3-3.426-1.564" transform="translate(-1043.411 -1279.646)" fill="#93cef8"/>
          <path id="Trazado_1051855" data-name="Trazado 1051855" d="M611.544,2049.423c-.265.9-.521,1.923-1.725,1.752a1.918,1.918,0,0,1-1.769-2.026,1.508,1.508,0,0,1,1.75-1.467,1.656,1.656,0,0,1,1.744,1.74" transform="translate(-566.699 -1908.433)" fill="#93d0fa"/>
          <path id="Trazado_1051856" data-name="Trazado 1051856" d="M3522.4,3443.229l-11.629.785c.095.885.756,1.042,1.2,1.365,6.186,4.519,11.75,9.65,15.982,16.108a12.818,12.818,0,0,1,2.072,8.322c-.044.534-.027,1.128-.633,1.336-.563.193-1-.211-1.436-.512-1.21-.838-1.476-2.2-1.754-3.468-1.713-7.774-6.27-13.381-13.022-17.357a91.779,91.779,0,0,1-8.858-6.374c-.4-.306-.964-.642-.809-1.259.189-.754.9-.664,1.479-.683,4.91-.154,9.763.55,14.635.977.913.08,1.822.212,2.732.32.013.147.026.293.04.44" transform="translate(-3265.238 -3207.439)" fill="#fce46c"/>
          <path id="Trazado_1051857" data-name="Trazado 1051857" d="M3436.8,2382.331c1.137-2.473,2.13-5.038,4.386-6.788-1.231,2.411-2.319,4.916-4.386,6.788" transform="translate(-3203.089 -2213.998)" fill="#fec53d"/>
          <path id="Trazado_1051858" data-name="Trazado 1051858" d="M2312.33,3086.545c-.925,3.389-3.191,5.193-6.832,5.437-1.051-.618-2.309-.446-3.415-.949a6.794,6.794,0,0,1-3.862-8.842,7.177,7.177,0,0,1,8.746-4.266c4.1,1.218,5.828,3.993,5.362,8.62" transform="translate(-2141.5 -2868.341)" fill="#7ebaf0"/>
          <path id="Trazado_1051859" data-name="Trazado 1051859" d="M2304.161,3080.54c-.23-4.841-1.686-7.043-5.4-8.172a6.492,6.492,0,0,0-8.418,4.523c-1.013,3.789.93,6.948,4.825,8,.754.2,1.816-.009,2.162,1.083a7.676,7.676,0,0,1-8.2-6.018c-.7-3.156,1.456-6.817,4.879-8.255.428-.18.873-.318,1.31-.476,4.251-.323,7.431,1.205,9.131,5.289-.037,1.345.419,2.725-.283,4.023" transform="translate(-2133.332 -2862.335)" fill="#6697da"/>
          <path id="Trazado_1051860" data-name="Trazado 1051860" d="M1885.356,3153.491l-.766-.07c-.07-.256.027.046-.109-.162-.581-.9.419-2.748-1.034-2.817-1.9-.091-4.093-.377-5.619,1.417l-2.606-.931c2.7-3.734,6.615-3.5,10.362-2.288a41.21,41.21,0,0,0,8.474,2.133c-.569.573-1.412.083-1.884.642a15.107,15.107,0,0,1-5.027-1.062c-1.461-.535-2.109-.318-1.871,1.357a17.757,17.757,0,0,1,.081,1.782" transform="translate(-1747.7 -2933.779)" fill="#eb966a"/>
          <path id="Trazado_1051861" data-name="Trazado 1051861" d="M2534.627,2795.413c1.01.052,1.482.456,1.463,1.494s-.731,1.272-1.415,1.247a1.406,1.406,0,0,1-1.493-1.514c.044-.908.711-1.182,1.445-1.227" transform="translate(-2360.915 -2605.316)" fill="#abc2e3"/>
          <path id="Trazado_1051862" data-name="Trazado 1051862" d="M2141.583,3202.056l4.439,0a7.286,7.286,0,0,1-4.439,0" transform="translate(-1995.948 -2984.306)" fill="#eb966a"/>
          <path id="Trazado_1051863" data-name="Trazado 1051863" d="M1870.8,3319.827a49.667,49.667,0,0,1,8.688.222c-1.212-1.036-2.771-.7-4.143-1a34.111,34.111,0,0,0-4.3-.185c6.225-1.176,11.8,1.229,17.544,3.257a2.08,2.08,0,0,1-2.015.761,132.008,132.008,0,0,1-15.394-2.666c-.052-.014-.088-.087-.38-.392" transform="translate(-1743.58 -3092.884)" fill="#f29b6b"/>
          <path id="Trazado_1051864" data-name="Trazado 1051864" d="M1910.085,3174.719c-.6-1.01-.062-1.484.862-1.644,1.6-.278,3.21-.543,4.827-.693,1.263-.117,1.479.784,1.469,1.814a3.707,3.707,0,0,1-.4,2.086l-6.762-1.562" transform="translate(-1779.958 -2956.639)" fill="#f5a736"/>
          <path id="Trazado_1051865" data-name="Trazado 1051865" d="M1925.177,1670.886c2.867-2.8,5.448-5.716,6.081-9.961.293-1.964-.034-3.99.679-5.893,2.6,3.419,4.859,7.11,7.967,10.119,5.747,5.562,12.357,9.513,20.435,10.55,1.494.192,1.847.589.775,1.765a.817.817,0,0,0,.118,1.353,1.205,1.205,0,0,1-.119,2.148c-1.8,1.1-2.28,3.023-3.257,4.64-12.021.512-22.589-2.768-30.912-11.869a8.717,8.717,0,0,1-1.767-2.852" transform="translate(-1794.258 -1542.484)" fill="#fdbe86"/>
          <path id="Trazado_1051866" data-name="Trazado 1051866" d="M2651.462,1838.536l-5.089,4.081c-1.865.3-3.339-.189-4.144-2.039-1.183-1.244-2.818-2.13-3.179-4.022a56.962,56.962,0,0,0,10.131,1.6c.771.03,1.6-.235,2.281.384" transform="translate(-2459.584 -1711.663)" fill="#d45e12"/>
          <path id="Trazado_1051867" data-name="Trazado 1051867" d="M2637.286,1895.706c1.031,1.391,2.854,1.171,4.144,2.039-2.144,2.461-5.016,3.943-7.684,5.7.584-1.567,1.791-2.714,2.729-4.042.749-1.062,1.712-2.1.38-3.4l.431-.3" transform="translate(-2454.642 -1766.792)" fill="#638bbc"/>
          <path id="Trazado_1051868" data-name="Trazado 1051868" d="M1914.4,1851.123c-.045.572-.458.773-.925.92-.218-.453-.7-.447-1.077-.619a2.4,2.4,0,0,1,2-.3" transform="translate(-1782.348 -1725.138)" fill="#fdbe86"/>
          <path id="Trazado_1051869" data-name="Trazado 1051869" d="M2125.006,1414.672c7.74-.108,15.2-.037,22.751-.49-3.6,6.939-18.261,7.331-22.751.49" transform="translate(-1980.498 -1318.013)" fill="#fcfbf9"/>
          <path id="Trazado_1051870" data-name="Trazado 1051870" d="M2548,2809.079a.735.735,0,0,1-.546.775.634.634,0,0,1-.843-.536.533.533,0,0,1,.5-.665.77.77,0,0,1,.887.425" transform="translate(-2373.418 -2617.642)" fill="#3d5181"/>
        </g>
      </g>
      <g id="Grupo_1226980" data-name="Grupo 1226980" transform="translate(962.426 9627.767)">
        <g id="Grupo_1226979" data-name="Grupo 1226979" transform="translate(0 0)">
          <g transform="matrix(1, 0, 0, 1, -123.63, -49.48)" filter="url(#Trazado_1051871)">
            <path id="Trazado_1051871-2" data-name="Trazado 1051871" d="M39.981.082c8.931-.6,17.785,2.175,25.258,6.94a42.359,42.359,0,0,1,18.17,26.37c2.45,11.361-.087,22.549-6.359,32.212L87.736,86.627,64.883,77.148l-4.981,2.6a41.209,41.209,0,0,1-13.819,3.6c-11.336.881-22.275-2.224-30.965-9.711A43.435,43.435,0,0,1,.095,44.024,41.274,41.274,0,0,1,9.774,14.609C17.684,5.527,28.08.942,39.981.082" transform="translate(123.63 49.48)" fill="#f6f3ef"/>
          </g>
          <path id="Trazado_1051872" data-name="Trazado 1051872" d="M93.831,62.276l.029.373c.324,6.719-4.111,15.289-8.581,20.021A33.938,33.938,0,0,1,61.87,93.394a33.1,33.1,0,0,1-24.131-8.929C31.516,78.532,27.167,69.976,27,61.293c-.173-9.02,2.682-17.209,9.021-23.719a33.87,33.87,0,0,1,47.562-.751C89.453,42.672,93.876,51.1,93.831,59.547a21.5,21.5,0,0,0,0,2.729" transform="translate(-18.324 -18.629)" fill="#fec53d"/>
          <path id="Trazado_1051873" data-name="Trazado 1051873" d="M100.661,108.3c-2.332,0-23.848-.177-24.051-.03a7.584,7.584,0,0,0-.649,1.441c-.931,2.06-2.036,5.564-3.786,6.949a2.32,2.32,0,0,1-1.895-.352A10.527,10.527,0,0,1,68.9,112.59l-1.866-7.145-2.675,9.279-1.394,6c-.234,1.191-.305,2.78-1.166,3.7a1.73,1.73,0,0,1-1.509-.2c-1.371-2.183-1.827-6.476-2.383-9.025l-2.855-13.575c-.315,1.638-.52,3.967-1.291,5.427a2.084,2.084,0,0,1-1.32,1.216,21.007,21.007,0,0,1-3.568.046H41.027a13.916,13.916,0,0,1-3.138-.064,4.508,4.508,0,0,1-.751-.621,2.049,2.049,0,0,1,.241-1.754c1.358-.538,3.247-.312,4.7-.313l9.445.025,2.158-9.48a2.065,2.065,0,0,1,1.612-.865,4.541,4.541,0,0,1,.777.554A7.372,7.372,0,0,1,56.69,97.8l1.278,5.8,3.067,13.282,3.016-10.132c.424-1.511.935-4.8,1.949-5.93.565-.629.909-.537,1.712-.611,1.243.89,1.4,2.839,1.737,4.278l2.014,8.794a63.9,63.9,0,0,1,3.777-7.629,79.79,79.79,0,0,1,8.729-.1l16.693.016a21.5,21.5,0,0,0,0,2.729" transform="translate(-25.154 -64.648)" fill="#263173"/>
        </g>
      </g>
      <g id="Grupo_1226982" data-name="Grupo 1226982" transform="translate(1307.634 9726.904)">
        <g id="Grupo_1226981" data-name="Grupo 1226981" clip-path="url(#clip-path-3)">
          <path id="Trazado_1051874" data-name="Trazado 1051874" d="M219.356,75.031c-.028-1.66-.518-5.216.654-6.417,1.211-1.24,6.409-.727,8.305-.721,1.139,0,3.911-.342,4.715.475a2.624,2.624,0,0,1,.771,1.4,33.264,33.264,0,0,1,.047,5.128l.022,12.928c.022,1.377.463,5.149-.274,6.175a4.307,4.307,0,0,1-2.279.13A13,13,0,0,0,228.3,94l-6.595.033a3.794,3.794,0,0,1-2.054-.2l-.236-.865c-.391-2.817-.019-6.251-.008-9.126Z" transform="translate(-158.457 -48.993)" fill="#747eca"/>
          <path id="Trazado_1051875" data-name="Trazado 1051875" d="M234.35,140.079c.022,1.377.463,5.149-.274,6.175a4.307,4.307,0,0,1-2.279.13,13,13,0,0,0-3.019-.13l-6.595.033a3.794,3.794,0,0,1-2.054-.2l-.236-.865.028-5.062Z" transform="translate(-158.936 -101.248)" fill="#303a72"/>
          <path id="Trazado_1051876" data-name="Trazado 1051876" d="M165.752,437.253l6.21-.095a16.845,16.845,0,0,1,3.116.015l.189.017.072,2.3c.635.5,1.832.3,2.653.3l7.2-.011a25.614,25.614,0,0,1,4.247.135c5.672.991,8.824,4.887,10.4,10.157l-58.065.022a10.474,10.474,0,0,1,3.529-6.863c3.623-3.5,7.487-3.439,12.183-3.445l8.266.07Z" transform="translate(-102.472 -315.921)" fill="#303a72"/>
          <path id="Trazado_1051877" data-name="Trazado 1051877" d="M228.273,437.253l6.21-.095a16.845,16.845,0,0,1,3.116.015v2.437a1.745,1.745,0,0,1-.335.3c-.419.213-7.512.04-8.485,0l-.5-.062Z" transform="translate(-164.993 -315.921)" fill="#1a275f"/>
          <path id="Trazado_1051878" data-name="Trazado 1051878" d="M.123,39.743c.2-2.443.008-5.066.008-7.525L.137,16.331c0-3.37-.638-8.1.843-11.147A8.992,8.992,0,0,1,6.366.53a10.676,10.676,0,0,1,3.6-.422L25.862.1c2.284,0,5.117-.318,7.3.184a8.786,8.786,0,0,1,6.381,6.275,30.585,30.585,0,0,1,.211,6.3l.036,13.183-.014,8.8-.025,10.266c0,2.149.3,4.725-.507,6.737a9.079,9.079,0,0,1-7.208,5.434,42.546,42.546,0,0,1-4.607.052l-8.912-.017-6.883,0a16.568,16.568,0,0,1-3.992-.223,9.879,9.879,0,0,1-4.929-2.644C-.836,50.789.137,44.465.123,39.743" transform="translate(0 0)" fill="#303a72"/>
          <path id="Trazado_1051879" data-name="Trazado 1051879" d="M228.1,162.33l6.595-.033a13,13,0,0,1,3.019.13l.014,9.924-9.65-.018Z" transform="translate(-164.848 -117.29)" fill="#1a275f"/>
          <path id="Trazado_1051880" data-name="Trazado 1051880" d="M143.506,93.933l21.107,0,.05,8.809H143.493Z" transform="translate(-103.715 -67.891)" fill="#6c58aa"/>
          <path id="Trazado_1051881" data-name="Trazado 1051881" d="M228.073,198.557l9.65.018-.08,66.208-.189-.017a16.845,16.845,0,0,0-3.116-.015l-6.21.095Z" transform="translate(-164.848 -143.515)" fill="#747eca"/>
        </g>
      </g>
      <g id="Grupo_1226984" data-name="Grupo 1226984" transform="translate(857.601 9719.861)">
        <g id="Grupo_1226983" data-name="Grupo 1226983" clip-path="url(#clip-path-4)">
          <path id="Trazado_1051882" data-name="Trazado 1051882" d="M61.72,203.651c.3-.521,24.115-12.342,26.085-13.111a25.331,25.331,0,0,0,3.251,4.71l-16.64,8.292c-2.569,1.3-5.46,3.262-8.16,4.076a2.827,2.827,0,0,1-1.821-.145c-1.378-.482-1.944-2.047-2.484-3.274Z" transform="translate(-44.252 -136.613)" fill="#141e54"/>
          <path id="Trazado_1051883" data-name="Trazado 1051883" d="M78.348,144.989c-1.6,4.188-2.2,8.491-.333,12.734l.072.158C76.117,158.649,52.3,170.47,52,170.992l-2.873-5.722c-.747-1.482-1.305-2.512-.718-4.172a3.394,3.394,0,0,1,1.336-1.743c2.66-1.793,6.094-3.1,8.99-4.567Z" transform="translate(-34.533 -103.954)" fill="#1a275f"/>
          <path id="Trazado_1051884" data-name="Trazado 1051884" d="M247.783,80.1l1.263-.754c1.066,5.859,3.575,10.75,6.824,15.675l-21.212,10.82a20.138,20.138,0,0,0-.92-6.284c-1.307-3.958-4.142-6.394-7.6-8.477Z" transform="translate(-162.132 -56.892)" fill="#1a275f"/>
          <path id="Trazado_1051885" data-name="Trazado 1051885" d="M267.047,80.1l1.263-.754c1.066,5.859,3.575,10.75,6.824,15.675l-21.212,10.82a20.137,20.137,0,0,0-.92-6.284l17.787-9.019A42.307,42.307,0,0,1,267.047,80.1" transform="translate(-181.396 -56.892)" fill="#141e54"/>
          <path id="Trazado_1051886" data-name="Trazado 1051886" d="M305.778,40.03a11.3,11.3,0,0,1-.147-6.192c1.072-3.3,4.328-4.436,7.135-5.887l6.769-3.443a39.779,39.779,0,0,0,.017,6.709A35.142,35.142,0,0,0,328.074,49.6a25.438,25.438,0,0,0,9.853,7.04l-13.027,6.9a6.463,6.463,0,0,1-3.3.288c-3.293-.552-7.14-5.472-8.994-8.125-3.249-4.925-5.758-9.816-6.824-15.675" transform="translate(-218.864 -17.572)" fill="#303a72"/>
          <path id="Trazado_1051887" data-name="Trazado 1051887" d="M151.029,123.5l.125-.254a14.607,14.607,0,0,1,8.608-7.51,15.145,15.145,0,0,1,11.453.92c3.463,2.083,6.3,4.519,7.6,8.477a20.137,20.137,0,0,1,.92,6.284,15.929,15.929,0,0,1-6.29,10.957,3.832,3.832,0,0,1-1.011.611,8.2,8.2,0,0,1,.224,3.447l-.514.605a25.646,25.646,0,0,1-14.347.4,3.155,3.155,0,0,1-1.582-1.283c-.447-.858,0-2.385.27-3.245a16.866,16.866,0,0,1-2.471-1.81,25.331,25.331,0,0,1-3.251-4.71l-.072-.158c-1.869-4.243-1.27-8.546.333-12.734" transform="translate(-107.215 -82.468)" fill="#303a72"/>
          <path id="Trazado_1051888" data-name="Trazado 1051888" d="M172.939,213.576c4.032,2.03,7.872,2.947,12.3,1.518l3.654-1.445a8.2,8.2,0,0,1,.224,3.447l-.514.605a25.646,25.646,0,0,1-14.347.4,3.155,3.155,0,0,1-1.582-1.283c-.447-.858,0-2.385.27-3.245" transform="translate(-123.664 -153.129)" fill="#1a275f"/>
          <path id="Trazado_1051889" data-name="Trazado 1051889" d="M178.213,134.952a9.761,9.761,0,0,1,5.713,1.114,9.519,9.519,0,0,1,4.527,5.648,9.008,9.008,0,0,1-.916,7.031,9.185,9.185,0,0,1-13.153,3.13,9.1,9.1,0,0,1-3.91-5.679,9.29,9.29,0,0,1,1.251-7.011,9.742,9.742,0,0,1,6.489-4.232" transform="translate(-122.076 -96.727)" fill="#747eca"/>
          <path id="Trazado_1051890" data-name="Trazado 1051890" d="M50.587,228.555a25.645,25.645,0,0,0,14.347-.4c.771,1.907,2.444,3.766,3.574,5.522L94.993,271.39l23.77,33.4h-5.42l-24-34.016L66.677,238.687c-.7-1.021-3.969-6.369-4.872-6.467L60.3,232.3c-.579,1.534-.186,4.3-.181,5.993l.042,14.992-.031,41.949,9.521.013a22.338,22.338,0,0,1,4.162.079,2.5,2.5,0,0,1,1.162.687c1.373,1.342.738,6.668.739,8.663l-34.146-.009c-.008-2-.631-7.252.752-8.687a3.346,3.346,0,0,1,.877-.616,11.61,11.61,0,0,1,3.6-.192l9.03.08-.061-47.69.037-11c0-1.087.278-3.3-.179-4.228a7.545,7.545,0,0,0-2.221,0L5.408,304.645l-5.408,0Z" transform="translate(0 -163.58)" fill="#303a72"/>
          <path id="Trazado_1051891" data-name="Trazado 1051891" d="M368.149,0a19.791,19.791,0,0,1,15.032,5.8,21.764,21.764,0,0,1,6.332,15.268c.018,3.941-1.273,8.747-4.155,11.573a7.867,7.867,0,0,1-1.822,1.34l-2.059,1.07-5.919,3-1.812,1.017a25.438,25.438,0,0,1-9.853-7.04,35.143,35.143,0,0,1-8.521-18.388,39.783,39.783,0,0,1-.017-6.709l1.874-1.126a.962.962,0,0,1,.072-.365c.835-2.246,4.69-3.607,6.712-4.5l2.16-.69Z" transform="translate(-254.683 0)" fill="#303a72"/>
          <path id="Trazado_1051892" data-name="Trazado 1051892" d="M384.832,1.588l2.16-.69c-.264,1.889-.737,3.752-.856,5.654a28.662,28.662,0,0,0,6.068,19.28,23.988,23.988,0,0,0,8.788,7.26,14.407,14.407,0,0,1,3.363,1.539L402.3,35.7c-4.789-2.149-8.48-4.378-11.582-8.748-5.677-8-7.527-15.647-5.882-25.365" transform="translate(-275.501 -0.644)" fill="#141e54"/>
          <path id="Trazado_1051893" data-name="Trazado 1051893" d="M364.014,3.336c-1.646,9.718.2,17.369,5.882,25.365,3.1,4.369,6.793,6.6,11.582,8.748l-5.919,3-1.812,1.017a25.438,25.438,0,0,1-9.853-7.04,35.143,35.143,0,0,1-8.521-18.388,39.783,39.783,0,0,1-.017-6.709L357.229,8.2a.962.962,0,0,1,.072-.365c.835-2.246,4.69-3.607,6.712-4.5" transform="translate(-254.683 -2.392)" fill="#303a72"/>
          <path id="Trazado_1051894" data-name="Trazado 1051894" d="M355.355,21.656l1.874-1.126a43.989,43.989,0,0,0-.043,7.367c.746,6.583,4.084,13.019,8.417,17.948a24.991,24.991,0,0,0,6.964,5.674,23.923,23.923,0,0,1,2.99,1.256l-1.812,1.017a25.438,25.438,0,0,1-9.853-7.04,35.143,35.143,0,0,1-8.521-18.388,39.783,39.783,0,0,1-.017-6.709" transform="translate(-254.683 -14.72)" fill="#141e54"/>
        </g>
      </g>
    </g>
  </g>
</svg>
