<svg xmlns="http://www.w3.org/2000/svg" xmlns:xlink="http://www.w3.org/1999/xlink" width="1328" height="566" viewBox="0 0 1328 566">
  <defs>
    <clipPath id="clip-path">
      <rect id="Rect치ngulo_418093" data-name="Rect치ngulo 418093" width="1328" height="566" transform="translate(136 923.783)" fill="#ecf2ff"/>
    </clipPath>
  </defs>
  <g id="Grupo_1219610" data-name="Grupo 1219610" transform="translate(-136 -918.783)">
    <rect id="Rect치ngulo_415986" data-name="Rect치ngulo 415986" width="1328" height="566" transform="translate(136 918.783)" fill="#ecf2ff"/>
    <g id="Enmascarar_grupo_1098775" data-name="Enmascarar grupo 1098775" transform="translate(0 -5)" clip-path="url(#clip-path)">
      <g id="Grupo_1206104" data-name="Grupo 1206104" transform="translate(19.005 851.252)">
        <path id="Trazado_1042745" data-name="Trazado 1042745" d="M84.6,302.876C43.39,289.729-.43,247.163,0,210.792c.52-43.444,63.65-35.685,124.2-108.65,44.39-53.5,41.89-95.554,80-101.476,29.95-4.651,67,15.789,84.76,42.98,37.92,58.073-17.51,138.685-34.33,163.151-15.75,22.9-84.76,123.269-170.03,96.079Z" transform="translate(-46.997 -2.004)" fill="#b8ccf8" opacity="0.25"/>
        <path id="Trazado_1042746" data-name="Trazado 1042746" d="M790.38,299.428c-22.54,35.746-72.91,70.14-106.38,65.156-39.97-5.953-16.87-62.27-68.93-126.417-38.17-47.036-77.62-50.072-73.47-85.4,3.27-27.765,31.5-58.81,61.09-71.492,63.19-27.089,123.6,33.385,141.94,51.737,17.17,17.182,92.39,92.467,45.74,166.42Z" transform="translate(735.003 -65.979)" fill="#b8ccf8" opacity="0.25"/>
      </g>
    </g>
    <g id="Grupo_1206106" data-name="Grupo 1206106" opacity="0.1">
      <path id="Trazado_1042774" data-name="Trazado 1042774" d="M177.84,719.46l-7.93,12.67h17.07Z" transform="translate(66.925 510.683)" fill="#914d86"/>
      <path id="Trazado_1043063" data-name="Trazado 1043063" d="M177.84,732.13l-7.93-12.67h17.07Z" transform="translate(1110.904 272.483)" fill="#914d86"/>
      <path id="Trazado_1043061" data-name="Trazado 1043061" d="M177.84,719.46l-7.93,12.67h17.07Z" transform="translate(1229.536 695.922)" fill="#914d86"/>
      <path id="Trazado_1042776" data-name="Trazado 1042776" d="M506.98,822.58l-9.85,15.72h21.18Z" transform="translate(-136.075 504.432)" fill="#914d86"/>
      <path id="Trazado_1042777" data-name="Trazado 1042777" d="M664.51,413.88l-20.56,32.83h44.22Z" transform="translate(601.18 933.66)" fill="#914d86"/>
      <path id="Trazado_1042778" data-name="Trazado 1042778" d="M364.15,863.69h-8.48v-8.48a1.65,1.65,0,1,0-3.3,0v8.48h-8.48a1.65,1.65,0,0,0,0,3.3h8.48v8.48a1.65,1.65,0,1,0,3.3,0v-8.48h8.48a1.65,1.65,0,0,0,0-3.3Z" transform="translate(-136.075 504.432)" fill="#914d86"/>
      <path id="Trazado_1042779" data-name="Trazado 1042779" d="M180.82,627.48h-9.96v-9.97a1.94,1.94,0,0,0-3.88,0v9.97h-9.96a1.94,1.94,0,0,0,0,3.88h9.96v9.96a1.94,1.94,0,0,0,3.88,0v-9.96h9.96a1.94,1.94,0,0,0,0-3.88Z" transform="translate(190.925 348.683)" fill="#914d86"/>
      <path id="Trazado_1043062" data-name="Trazado 1043062" d="M180.82,627.48h-9.96v-9.97a1.94,1.94,0,0,0-3.88,0v9.97h-9.96a1.94,1.94,0,0,0,0,3.88h9.96v9.96a1.94,1.94,0,0,0,3.88,0v-9.96h9.96a1.94,1.94,0,0,0,0-3.88Z" transform="translate(1229.536 695.922)" fill="#914d86"/>
      <g id="Grupo_1206062" data-name="Grupo 1206062" transform="translate(601.18 933.66)">
        <path id="Trazado_1042780" data-name="Trazado 1042780" d="M144.86,253.25l-4.04,6.44h8.68Z" fill="#914d86"/>
        <path id="Trazado_1042781" data-name="Trazado 1042781" d="M688.39,243.71l-4.03,6.44h8.68Z" fill="#914d86"/>
        <path id="Trazado_1042782" data-name="Trazado 1042782" d="M207.6,214.04H197.52V203.96a1.96,1.96,0,0,0-3.92,0v10.08H183.52a1.96,1.96,0,0,0,0,3.92H193.6v10.08a1.96,1.96,0,1,0,3.92,0V217.96H207.6a1.96,1.96,0,1,0,0-3.92Z" fill="#914d86"/>
        <path id="Trazado_1042783" data-name="Trazado 1042783" d="M687.86,165.41h-4.32v-4.32a.84.84,0,0,0-1.68,0v4.32h-4.32a.84.84,0,1,0,0,1.68h4.32v4.32a.84.84,0,0,0,1.68,0v-4.32h4.32a.84.84,0,1,0,0-1.68Z" fill="#914d86"/>
        <path id="Trazado_1042784" data-name="Trazado 1042784" d="M640.51,282.17h-7.16v-7.16a1.39,1.39,0,0,0-2.78,0v7.16h-7.16a1.39,1.39,0,0,0,0,2.78h7.16v7.16a1.39,1.39,0,0,0,2.78,0v-7.16h7.16a1.39,1.39,0,0,0,0-2.78Z" fill="#914d86"/>
        <path id="Trazado_1042785" data-name="Trazado 1042785" d="M148.93,159.64a3.77,3.77,0,1,1-3.77-3.77A3.773,3.773,0,0,1,148.93,159.64Z" fill="#914d86"/>
        <path id="Trazado_1042786" data-name="Trazado 1042786" d="M618.82,194a3.77,3.77,0,1,1-3.77-3.77A3.773,3.773,0,0,1,618.82,194Z" fill="#914d86"/>
        <path id="Trazado_1042787" data-name="Trazado 1042787" d="M246.77,166.25a3.77,3.77,0,1,1-3.77-3.77A3.773,3.773,0,0,1,246.77,166.25Z" fill="#914d86"/>
      </g>
    </g>
  </g>
</svg>
